<mxfile host="app.diagrams.net" modified="2021-03-01T21:35:09.240Z" agent="5.0 (X11; Linux x86_64) AppleWebKit/537.36 (KHTML, like Gecko) Chrome/88.0.4324.182 Safari/537.36" etag="TEDELu9Tm_m_QU8mGxTJ" version="14.4.3" type="github" pages="2">
  <diagram id="oVmOVdsd3ROS7D0npn7j" name="Main">
    <mxGraphModel dx="3622" dy="1886" grid="1" gridSize="10" guides="1" tooltips="1" connect="1" arrows="1" fold="1" page="1" pageScale="1" pageWidth="827" pageHeight="1169" math="0" shadow="0">
      <root>
        <mxCell id="0" />
        <mxCell id="1" parent="0" />
        <mxCell id="e0YomdGTlNmDe-Sjkuyy-45" style="edgeStyle=orthogonalEdgeStyle;rounded=0;orthogonalLoop=1;jettySize=auto;html=1;exitX=1;exitY=0.5;exitDx=0;exitDy=0;entryX=0;entryY=0.5;entryDx=0;entryDy=0;" edge="1" parent="1" source="e0YomdGTlNmDe-Sjkuyy-4">
          <mxGeometry relative="1" as="geometry">
            <mxPoint x="530" y="175" as="targetPoint" />
            <Array as="points">
              <mxPoint x="840" y="175" />
              <mxPoint x="840" y="120" />
              <mxPoint x="500" y="120" />
              <mxPoint x="500" y="175" />
            </Array>
          </mxGeometry>
        </mxCell>
        <mxCell id="e0YomdGTlNmDe-Sjkuyy-22" value="" style="edgeStyle=orthogonalEdgeStyle;rounded=0;orthogonalLoop=1;jettySize=auto;html=1;exitX=0.5;exitY=1;exitDx=0;exitDy=0;" edge="1" parent="1" source="e0YomdGTlNmDe-Sjkuyy-20" target="e0YomdGTlNmDe-Sjkuyy-21">
          <mxGeometry relative="1" as="geometry" />
        </mxCell>
        <mxCell id="e0YomdGTlNmDe-Sjkuyy-24" style="edgeStyle=orthogonalEdgeStyle;rounded=0;orthogonalLoop=1;jettySize=auto;html=1;exitX=0.5;exitY=1;exitDx=0;exitDy=0;entryX=0.5;entryY=0;entryDx=0;entryDy=0;" edge="1" parent="1" source="e0YomdGTlNmDe-Sjkuyy-20" target="e0YomdGTlNmDe-Sjkuyy-23">
          <mxGeometry relative="1" as="geometry" />
        </mxCell>
        <mxCell id="e0YomdGTlNmDe-Sjkuyy-26" style="edgeStyle=orthogonalEdgeStyle;rounded=0;orthogonalLoop=1;jettySize=auto;html=1;exitX=0.5;exitY=1;exitDx=0;exitDy=0;" edge="1" parent="1" source="e0YomdGTlNmDe-Sjkuyy-20" target="e0YomdGTlNmDe-Sjkuyy-25">
          <mxGeometry relative="1" as="geometry" />
        </mxCell>
        <mxCell id="e0YomdGTlNmDe-Sjkuyy-31" style="edgeStyle=orthogonalEdgeStyle;rounded=0;orthogonalLoop=1;jettySize=auto;html=1;exitX=0.5;exitY=0;exitDx=0;exitDy=0;entryX=0.5;entryY=0;entryDx=0;entryDy=0;" edge="1" parent="1" source="e0YomdGTlNmDe-Sjkuyy-20" target="e0YomdGTlNmDe-Sjkuyy-30">
          <mxGeometry relative="1" as="geometry" />
        </mxCell>
        <mxCell id="e0YomdGTlNmDe-Sjkuyy-89" style="edgeStyle=orthogonalEdgeStyle;rounded=0;orthogonalLoop=1;jettySize=auto;html=1;exitX=0.5;exitY=0;exitDx=0;exitDy=0;entryX=0.5;entryY=0;entryDx=0;entryDy=0;" edge="1" parent="1" source="e0YomdGTlNmDe-Sjkuyy-20" target="e0YomdGTlNmDe-Sjkuyy-34">
          <mxGeometry relative="1" as="geometry" />
        </mxCell>
        <mxCell id="e0YomdGTlNmDe-Sjkuyy-240" style="edgeStyle=orthogonalEdgeStyle;rounded=0;orthogonalLoop=1;jettySize=auto;html=1;exitX=0.5;exitY=1;exitDx=0;exitDy=0;entryX=0.5;entryY=0;entryDx=0;entryDy=0;" edge="1" parent="1" source="e0YomdGTlNmDe-Sjkuyy-20" target="e0YomdGTlNmDe-Sjkuyy-238">
          <mxGeometry relative="1" as="geometry" />
        </mxCell>
        <mxCell id="e0YomdGTlNmDe-Sjkuyy-20" value="Главный экран" style="rounded=0;whiteSpace=wrap;html=1;" vertex="1" parent="1">
          <mxGeometry x="1350" y="20" width="120" height="60" as="geometry" />
        </mxCell>
        <mxCell id="e0YomdGTlNmDe-Sjkuyy-21" value="круговая диаграмма содержащая кол-во сданных объектах (кол-во объектов в архиве), выданных в печать(кол-во объектов не в архиве) и приостановленных(кол-во объектов на паузе)" style="rounded=0;whiteSpace=wrap;html=1;" vertex="1" parent="1">
          <mxGeometry x="990" y="130" width="240" height="110" as="geometry" />
        </mxCell>
        <mxCell id="e0YomdGTlNmDe-Sjkuyy-23" value="&lt;div style=&quot;text-align: center&quot;&gt;&lt;span&gt;Последние действия (активность)&lt;/span&gt;&lt;/div&gt;&lt;div style=&quot;text-align: center&quot;&gt;&lt;span&gt;Логгируется:&lt;/span&gt;&lt;/div&gt;1) добавление/изменение информации/статуса объекта&lt;br&gt;&lt;br&gt;2) добавление/изменение состава проекта&lt;br&gt;&lt;br&gt;3) изменение состояния тома&lt;br&gt;&lt;br&gt;4) добавление комментария" style="rounded=0;whiteSpace=wrap;html=1;align=left;" vertex="1" parent="1">
          <mxGeometry x="1260" y="130" width="300" height="150" as="geometry" />
        </mxCell>
        <mxCell id="e0YomdGTlNmDe-Sjkuyy-25" value="пользовательские&lt;br&gt;заметки не привязанные ни к какому-либо объекту" style="rounded=0;whiteSpace=wrap;html=1;" vertex="1" parent="1">
          <mxGeometry x="1584.75" y="130" width="210" height="70" as="geometry" />
        </mxCell>
        <mxCell id="e0YomdGTlNmDe-Sjkuyy-87" style="edgeStyle=orthogonalEdgeStyle;rounded=0;orthogonalLoop=1;jettySize=auto;html=1;exitX=0.5;exitY=1;exitDx=0;exitDy=0;entryX=0.5;entryY=0;entryDx=0;entryDy=0;" edge="1" parent="1" source="e0YomdGTlNmDe-Sjkuyy-30" target="e0YomdGTlNmDe-Sjkuyy-48">
          <mxGeometry relative="1" as="geometry">
            <mxPoint x="414" y="140" as="targetPoint" />
          </mxGeometry>
        </mxCell>
        <mxCell id="e0YomdGTlNmDe-Sjkuyy-30" value="Объекты" style="rounded=0;whiteSpace=wrap;html=1;" vertex="1" parent="1">
          <mxGeometry x="354" y="30" width="120" height="60" as="geometry" />
        </mxCell>
        <mxCell id="e0YomdGTlNmDe-Sjkuyy-34" value="Электронный список заявок" style="rounded=0;whiteSpace=wrap;html=1;" vertex="1" parent="1">
          <mxGeometry x="-1130" y="30" width="120" height="60" as="geometry" />
        </mxCell>
        <mxCell id="e0YomdGTlNmDe-Sjkuyy-58" style="edgeStyle=orthogonalEdgeStyle;rounded=0;orthogonalLoop=1;jettySize=auto;html=1;exitX=0;exitY=0.5;exitDx=0;exitDy=0;entryX=1;entryY=0.5;entryDx=0;entryDy=0;" edge="1" parent="1" source="e0YomdGTlNmDe-Sjkuyy-48" target="e0YomdGTlNmDe-Sjkuyy-74">
          <mxGeometry relative="1" as="geometry">
            <mxPoint x="284" y="255" as="targetPoint" />
          </mxGeometry>
        </mxCell>
        <mxCell id="e0YomdGTlNmDe-Sjkuyy-71" style="edgeStyle=orthogonalEdgeStyle;rounded=0;orthogonalLoop=1;jettySize=auto;html=1;exitX=0.5;exitY=1;exitDx=0;exitDy=0;entryX=0.5;entryY=0;entryDx=0;entryDy=0;" edge="1" parent="1" source="e0YomdGTlNmDe-Sjkuyy-48" target="e0YomdGTlNmDe-Sjkuyy-50">
          <mxGeometry relative="1" as="geometry">
            <Array as="points">
              <mxPoint x="415" y="370" />
              <mxPoint x="415" y="490" />
              <mxPoint x="1067" y="490" />
            </Array>
          </mxGeometry>
        </mxCell>
        <mxCell id="e0YomdGTlNmDe-Sjkuyy-140" style="edgeStyle=orthogonalEdgeStyle;rounded=0;orthogonalLoop=1;jettySize=auto;html=1;exitX=1;exitY=0.5;exitDx=0;exitDy=0;entryX=0;entryY=0.5;entryDx=0;entryDy=0;" edge="1" parent="1" source="e0YomdGTlNmDe-Sjkuyy-48" target="e0YomdGTlNmDe-Sjkuyy-134">
          <mxGeometry relative="1" as="geometry" />
        </mxCell>
        <mxCell id="e0YomdGTlNmDe-Sjkuyy-213" style="edgeStyle=orthogonalEdgeStyle;rounded=0;orthogonalLoop=1;jettySize=auto;html=1;exitX=0.5;exitY=1;exitDx=0;exitDy=0;entryX=0.5;entryY=0;entryDx=0;entryDy=0;" edge="1" parent="1" source="e0YomdGTlNmDe-Sjkuyy-48" target="e0YomdGTlNmDe-Sjkuyy-136">
          <mxGeometry relative="1" as="geometry">
            <Array as="points">
              <mxPoint x="415" y="440" />
              <mxPoint x="260" y="440" />
            </Array>
          </mxGeometry>
        </mxCell>
        <mxCell id="e0YomdGTlNmDe-Sjkuyy-214" style="edgeStyle=orthogonalEdgeStyle;rounded=0;orthogonalLoop=1;jettySize=auto;html=1;exitX=1;exitY=0.5;exitDx=0;exitDy=0;entryX=0;entryY=0.5;entryDx=0;entryDy=0;" edge="1" parent="1" source="e0YomdGTlNmDe-Sjkuyy-48" target="e0YomdGTlNmDe-Sjkuyy-107">
          <mxGeometry relative="1" as="geometry" />
        </mxCell>
        <mxCell id="e0YomdGTlNmDe-Sjkuyy-233" style="edgeStyle=orthogonalEdgeStyle;rounded=0;orthogonalLoop=1;jettySize=auto;html=1;exitX=1;exitY=0.5;exitDx=0;exitDy=0;entryX=0;entryY=0.5;entryDx=0;entryDy=0;" edge="1" parent="1" source="e0YomdGTlNmDe-Sjkuyy-48" target="e0YomdGTlNmDe-Sjkuyy-232">
          <mxGeometry relative="1" as="geometry" />
        </mxCell>
        <mxCell id="e0YomdGTlNmDe-Sjkuyy-290" style="edgeStyle=orthogonalEdgeStyle;rounded=0;jumpStyle=none;orthogonalLoop=1;jettySize=auto;html=1;exitX=1;exitY=0.5;exitDx=0;exitDy=0;entryX=0;entryY=0.5;entryDx=0;entryDy=0;" edge="1" parent="1" source="e0YomdGTlNmDe-Sjkuyy-48" target="e0YomdGTlNmDe-Sjkuyy-289">
          <mxGeometry relative="1" as="geometry">
            <Array as="points">
              <mxPoint x="570" y="293" />
              <mxPoint x="570" y="430" />
            </Array>
          </mxGeometry>
        </mxCell>
        <mxCell id="e0YomdGTlNmDe-Sjkuyy-48" value="Просмотр списка объектов.&lt;br&gt;Отображается:&lt;br&gt;&lt;div style=&quot;text-align: left&quot;&gt;&lt;span&gt;1) название объекта&lt;/span&gt;&lt;/div&gt;&lt;div style=&quot;text-align: left&quot;&gt;&lt;br&gt;&lt;/div&gt;&lt;div style=&quot;text-align: left&quot;&gt;&lt;span&gt;2) Чей объект&lt;/span&gt;&lt;/div&gt;&lt;div style=&quot;text-align: left&quot;&gt;&lt;br&gt;&lt;/div&gt;&lt;div style=&quot;text-align: left&quot;&gt;&lt;span&gt;3) процентное соотношение готовности объекта&lt;/span&gt;&lt;/div&gt;&lt;div style=&quot;text-align: left&quot;&gt;&lt;span&gt;&lt;br&gt;&lt;/span&gt;&lt;/div&gt;&lt;div style=&quot;text-align: left&quot;&gt;&lt;span&gt;4) состояние объекта&lt;/span&gt;&lt;/div&gt;" style="rounded=0;whiteSpace=wrap;html=1;" vertex="1" parent="1">
          <mxGeometry x="319" y="215" width="190" height="155" as="geometry" />
        </mxCell>
        <mxCell id="e0YomdGTlNmDe-Sjkuyy-110" style="edgeStyle=orthogonalEdgeStyle;rounded=0;orthogonalLoop=1;jettySize=auto;html=1;exitX=0;exitY=0.5;exitDx=0;exitDy=0;entryX=1;entryY=0.5;entryDx=0;entryDy=0;" edge="1" parent="1" source="e0YomdGTlNmDe-Sjkuyy-50" target="e0YomdGTlNmDe-Sjkuyy-109">
          <mxGeometry relative="1" as="geometry">
            <Array as="points">
              <mxPoint x="847" y="990" />
              <mxPoint x="847" y="880" />
            </Array>
          </mxGeometry>
        </mxCell>
        <mxCell id="e0YomdGTlNmDe-Sjkuyy-125" style="edgeStyle=orthogonalEdgeStyle;rounded=0;orthogonalLoop=1;jettySize=auto;html=1;entryX=1;entryY=0.5;entryDx=0;entryDy=0;exitX=0;exitY=0.5;exitDx=0;exitDy=0;" edge="1" parent="1" source="e0YomdGTlNmDe-Sjkuyy-50" target="e0YomdGTlNmDe-Sjkuyy-114">
          <mxGeometry relative="1" as="geometry">
            <mxPoint x="783" y="995" as="sourcePoint" />
            <Array as="points">
              <mxPoint x="877" y="990" />
              <mxPoint x="847" y="990" />
              <mxPoint x="847" y="1260" />
            </Array>
          </mxGeometry>
        </mxCell>
        <mxCell id="e0YomdGTlNmDe-Sjkuyy-160" style="edgeStyle=orthogonalEdgeStyle;rounded=0;orthogonalLoop=1;jettySize=auto;html=1;exitX=1;exitY=0.5;exitDx=0;exitDy=0;entryX=0;entryY=0.5;entryDx=0;entryDy=0;" edge="1" parent="1" source="e0YomdGTlNmDe-Sjkuyy-50" target="e0YomdGTlNmDe-Sjkuyy-159">
          <mxGeometry relative="1" as="geometry" />
        </mxCell>
        <mxCell id="e0YomdGTlNmDe-Sjkuyy-217" style="edgeStyle=orthogonalEdgeStyle;rounded=0;orthogonalLoop=1;jettySize=auto;html=1;exitX=1;exitY=0.5;exitDx=0;exitDy=0;entryX=0;entryY=0.5;entryDx=0;entryDy=0;" edge="1" parent="1" source="e0YomdGTlNmDe-Sjkuyy-50" target="e0YomdGTlNmDe-Sjkuyy-216">
          <mxGeometry relative="1" as="geometry">
            <Array as="points">
              <mxPoint x="1280" y="1023" />
              <mxPoint x="1280" y="855" />
            </Array>
          </mxGeometry>
        </mxCell>
        <mxCell id="e0YomdGTlNmDe-Sjkuyy-50" value="Просмотр информации конкретного объекта.&amp;nbsp;&lt;br&gt;Отображаются: &lt;br&gt;&lt;div style=&quot;text-align: left&quot;&gt;&lt;span&gt;1) состав проекта списком по группам (ПД/РД/ИИ) с радиобаттанами напротив каждого тома, чтобы можно было оперативно изменять состояние напечатано/не напечатано.&lt;/span&gt;&lt;/div&gt;&lt;div style=&quot;text-align: left&quot;&gt;&lt;span&gt;&lt;br&gt;&lt;/span&gt;&lt;/div&gt;&lt;div style=&quot;text-align: left&quot;&gt;&lt;span&gt;2) процентное соотношение&lt;/span&gt;&lt;/div&gt;&lt;div style=&quot;text-align: left&quot;&gt;&lt;span&gt;2.1) у каждой группы есть процентное соотношение готовности группы.&lt;/span&gt;&lt;/div&gt;&lt;div style=&quot;text-align: left&quot;&gt;&lt;span&gt;2.2) Отображается общее процентное соотношение готовности объекта.&lt;/span&gt;&lt;/div&gt;&lt;div style=&quot;text-align: left&quot;&gt;&lt;span&gt;&lt;br&gt;&lt;/span&gt;&lt;/div&gt;&lt;div style=&quot;text-align: left&quot;&gt;&lt;span&gt;3) Возможность отмечать, что в томе были правки уже после распечатки.&lt;/span&gt;&lt;/div&gt;&lt;div style=&quot;text-align: left&quot;&gt;&lt;span&gt;3.1) при клике правки статус сразу меняется на &quot;не напечатано&quot;.&lt;/span&gt;&lt;/div&gt;&lt;div style=&quot;text-align: left&quot;&gt;&lt;br&gt;&lt;/div&gt;&lt;div style=&quot;text-align: left&quot;&gt;4) форма добавления комментария&lt;/div&gt;&lt;div style=&quot;text-align: left&quot;&gt;4.1) изменение комментария&lt;/div&gt;&lt;div style=&quot;text-align: left&quot;&gt;4.2) удаление комментария&lt;/div&gt;" style="whiteSpace=wrap;html=1;rounded=0;" vertex="1" parent="1">
          <mxGeometry x="877" y="885" width="380" height="275" as="geometry" />
        </mxCell>
        <mxCell id="e0YomdGTlNmDe-Sjkuyy-73" style="edgeStyle=orthogonalEdgeStyle;rounded=0;orthogonalLoop=1;jettySize=auto;html=1;exitX=0.5;exitY=1;exitDx=0;exitDy=0;" edge="1" parent="1" source="e0YomdGTlNmDe-Sjkuyy-34" target="e0YomdGTlNmDe-Sjkuyy-64">
          <mxGeometry relative="1" as="geometry">
            <mxPoint x="-1070" y="270" as="sourcePoint" />
          </mxGeometry>
        </mxCell>
        <mxCell id="e0YomdGTlNmDe-Sjkuyy-62" value="" style="edgeStyle=orthogonalEdgeStyle;rounded=0;orthogonalLoop=1;jettySize=auto;html=1;" edge="1" parent="1" source="e0YomdGTlNmDe-Sjkuyy-64" target="e0YomdGTlNmDe-Sjkuyy-66">
          <mxGeometry relative="1" as="geometry" />
        </mxCell>
        <mxCell id="e0YomdGTlNmDe-Sjkuyy-63" value="" style="edgeStyle=orthogonalEdgeStyle;rounded=0;orthogonalLoop=1;jettySize=auto;html=1;" edge="1" parent="1" source="e0YomdGTlNmDe-Sjkuyy-64" target="e0YomdGTlNmDe-Sjkuyy-67">
          <mxGeometry relative="1" as="geometry" />
        </mxCell>
        <mxCell id="e0YomdGTlNmDe-Sjkuyy-64" value="Просмотр списка заявок" style="whiteSpace=wrap;html=1;rounded=0;" vertex="1" parent="1">
          <mxGeometry x="-1130" y="170" width="120" height="60" as="geometry" />
        </mxCell>
        <mxCell id="e0YomdGTlNmDe-Sjkuyy-77" style="edgeStyle=orthogonalEdgeStyle;rounded=0;orthogonalLoop=1;jettySize=auto;html=1;exitX=0;exitY=0.5;exitDx=0;exitDy=0;entryX=1;entryY=0.5;entryDx=0;entryDy=0;dashed=1;" edge="1" parent="1" source="e0YomdGTlNmDe-Sjkuyy-66" target="e0YomdGTlNmDe-Sjkuyy-64">
          <mxGeometry relative="1" as="geometry">
            <Array as="points">
              <mxPoint x="-1380" y="200" />
              <mxPoint x="-1380" y="140" />
              <mxPoint x="-990" y="140" />
              <mxPoint x="-990" y="200" />
            </Array>
          </mxGeometry>
        </mxCell>
        <mxCell id="e0YomdGTlNmDe-Sjkuyy-66" value="Форма добавления&lt;br&gt;новой заявки" style="shape=parallelogram;perimeter=parallelogramPerimeter;whiteSpace=wrap;html=1;fixedSize=1;rounded=0;" vertex="1" parent="1">
          <mxGeometry x="-1350" y="170" width="170" height="60" as="geometry" />
        </mxCell>
        <mxCell id="e0YomdGTlNmDe-Sjkuyy-79" style="edgeStyle=orthogonalEdgeStyle;rounded=0;orthogonalLoop=1;jettySize=auto;html=1;exitX=0;exitY=0.5;exitDx=0;exitDy=0;" edge="1" parent="1" source="e0YomdGTlNmDe-Sjkuyy-67" target="e0YomdGTlNmDe-Sjkuyy-78">
          <mxGeometry relative="1" as="geometry" />
        </mxCell>
        <mxCell id="e0YomdGTlNmDe-Sjkuyy-83" style="edgeStyle=orthogonalEdgeStyle;rounded=0;orthogonalLoop=1;jettySize=auto;html=1;exitX=0;exitY=0.5;exitDx=0;exitDy=0;entryX=1;entryY=0.5;entryDx=0;entryDy=0;" edge="1" parent="1" source="e0YomdGTlNmDe-Sjkuyy-67" target="e0YomdGTlNmDe-Sjkuyy-82">
          <mxGeometry relative="1" as="geometry" />
        </mxCell>
        <mxCell id="e0YomdGTlNmDe-Sjkuyy-67" value="Просмотр конкретной заявки" style="whiteSpace=wrap;html=1;rounded=0;" vertex="1" parent="1">
          <mxGeometry x="-1130" y="330" width="120" height="60" as="geometry" />
        </mxCell>
        <mxCell id="e0YomdGTlNmDe-Sjkuyy-95" style="edgeStyle=orthogonalEdgeStyle;rounded=0;orthogonalLoop=1;jettySize=auto;html=1;exitX=0;exitY=0.5;exitDx=0;exitDy=0;entryX=1;entryY=0.5;entryDx=0;entryDy=0;" edge="1" parent="1" source="e0YomdGTlNmDe-Sjkuyy-74" target="e0YomdGTlNmDe-Sjkuyy-93">
          <mxGeometry relative="1" as="geometry" />
        </mxCell>
        <mxCell id="e0YomdGTlNmDe-Sjkuyy-100" style="edgeStyle=orthogonalEdgeStyle;rounded=0;orthogonalLoop=1;jettySize=auto;html=1;exitX=0;exitY=0.5;exitDx=0;exitDy=0;entryX=1;entryY=0.5;entryDx=0;entryDy=0;" edge="1" parent="1" source="e0YomdGTlNmDe-Sjkuyy-74" target="e0YomdGTlNmDe-Sjkuyy-96">
          <mxGeometry relative="1" as="geometry" />
        </mxCell>
        <mxCell id="e0YomdGTlNmDe-Sjkuyy-101" style="edgeStyle=orthogonalEdgeStyle;rounded=0;orthogonalLoop=1;jettySize=auto;html=1;exitX=0;exitY=0.5;exitDx=0;exitDy=0;entryX=1;entryY=0.5;entryDx=0;entryDy=0;" edge="1" parent="1" source="e0YomdGTlNmDe-Sjkuyy-74" target="e0YomdGTlNmDe-Sjkuyy-98">
          <mxGeometry relative="1" as="geometry" />
        </mxCell>
        <mxCell id="e0YomdGTlNmDe-Sjkuyy-102" style="edgeStyle=orthogonalEdgeStyle;rounded=0;orthogonalLoop=1;jettySize=auto;html=1;exitX=0;exitY=0.5;exitDx=0;exitDy=0;entryX=1;entryY=0.5;entryDx=0;entryDy=0;" edge="1" parent="1" source="e0YomdGTlNmDe-Sjkuyy-74" target="e0YomdGTlNmDe-Sjkuyy-99">
          <mxGeometry relative="1" as="geometry" />
        </mxCell>
        <mxCell id="e0YomdGTlNmDe-Sjkuyy-131" style="edgeStyle=orthogonalEdgeStyle;rounded=0;orthogonalLoop=1;jettySize=auto;html=1;exitX=0;exitY=0.5;exitDx=0;exitDy=0;entryX=1;entryY=0.5;entryDx=0;entryDy=0;" edge="1" parent="1" source="e0YomdGTlNmDe-Sjkuyy-74" target="e0YomdGTlNmDe-Sjkuyy-130">
          <mxGeometry relative="1" as="geometry" />
        </mxCell>
        <mxCell id="e0YomdGTlNmDe-Sjkuyy-144" style="edgeStyle=orthogonalEdgeStyle;rounded=0;orthogonalLoop=1;jettySize=auto;html=1;exitX=0;exitY=0.5;exitDx=0;exitDy=0;entryX=1;entryY=0.5;entryDx=0;entryDy=0;" edge="1" parent="1" source="e0YomdGTlNmDe-Sjkuyy-74" target="e0YomdGTlNmDe-Sjkuyy-142">
          <mxGeometry relative="1" as="geometry" />
        </mxCell>
        <mxCell id="e0YomdGTlNmDe-Sjkuyy-229" style="edgeStyle=orthogonalEdgeStyle;rounded=0;orthogonalLoop=1;jettySize=auto;html=1;exitX=0;exitY=0.5;exitDx=0;exitDy=0;entryX=1;entryY=0.5;entryDx=0;entryDy=0;" edge="1" parent="1" source="e0YomdGTlNmDe-Sjkuyy-74" target="e0YomdGTlNmDe-Sjkuyy-226">
          <mxGeometry relative="1" as="geometry" />
        </mxCell>
        <mxCell id="e0YomdGTlNmDe-Sjkuyy-244" style="edgeStyle=orthogonalEdgeStyle;rounded=0;orthogonalLoop=1;jettySize=auto;html=1;exitX=0;exitY=0.5;exitDx=0;exitDy=0;entryX=1;entryY=0.5;entryDx=0;entryDy=0;" edge="1" parent="1" source="e0YomdGTlNmDe-Sjkuyy-74" target="e0YomdGTlNmDe-Sjkuyy-241">
          <mxGeometry relative="1" as="geometry" />
        </mxCell>
        <mxCell id="e0YomdGTlNmDe-Sjkuyy-268" style="edgeStyle=orthogonalEdgeStyle;rounded=0;orthogonalLoop=1;jettySize=auto;html=1;exitX=0;exitY=0.5;exitDx=0;exitDy=0;entryX=1;entryY=0.5;entryDx=0;entryDy=0;" edge="1" parent="1" source="e0YomdGTlNmDe-Sjkuyy-74" target="e0YomdGTlNmDe-Sjkuyy-264">
          <mxGeometry relative="1" as="geometry" />
        </mxCell>
        <mxCell id="e0YomdGTlNmDe-Sjkuyy-269" style="edgeStyle=orthogonalEdgeStyle;rounded=0;orthogonalLoop=1;jettySize=auto;html=1;exitX=0;exitY=0.5;exitDx=0;exitDy=0;entryX=1;entryY=0.5;entryDx=0;entryDy=0;" edge="1" parent="1" source="e0YomdGTlNmDe-Sjkuyy-74" target="e0YomdGTlNmDe-Sjkuyy-265">
          <mxGeometry relative="1" as="geometry" />
        </mxCell>
        <mxCell id="e0YomdGTlNmDe-Sjkuyy-270" style="edgeStyle=orthogonalEdgeStyle;rounded=0;orthogonalLoop=1;jettySize=auto;html=1;exitX=0;exitY=0.5;exitDx=0;exitDy=0;entryX=1;entryY=0.5;entryDx=0;entryDy=0;" edge="1" parent="1" source="e0YomdGTlNmDe-Sjkuyy-74" target="e0YomdGTlNmDe-Sjkuyy-267">
          <mxGeometry relative="1" as="geometry" />
        </mxCell>
        <mxCell id="e0YomdGTlNmDe-Sjkuyy-286" style="edgeStyle=orthogonalEdgeStyle;rounded=0;jumpStyle=none;orthogonalLoop=1;jettySize=auto;html=1;exitX=0;exitY=0.5;exitDx=0;exitDy=0;entryX=1;entryY=0.5;entryDx=0;entryDy=0;" edge="1" parent="1" source="e0YomdGTlNmDe-Sjkuyy-74" target="e0YomdGTlNmDe-Sjkuyy-285">
          <mxGeometry relative="1" as="geometry" />
        </mxCell>
        <mxCell id="e0YomdGTlNmDe-Sjkuyy-295" style="edgeStyle=orthogonalEdgeStyle;rounded=0;jumpStyle=none;orthogonalLoop=1;jettySize=auto;html=1;exitX=0;exitY=0.5;exitDx=0;exitDy=0;entryX=1;entryY=0.5;entryDx=0;entryDy=0;" edge="1" parent="1" source="e0YomdGTlNmDe-Sjkuyy-74" target="e0YomdGTlNmDe-Sjkuyy-294">
          <mxGeometry relative="1" as="geometry" />
        </mxCell>
        <mxCell id="e0YomdGTlNmDe-Sjkuyy-307" style="edgeStyle=orthogonalEdgeStyle;rounded=0;jumpStyle=none;orthogonalLoop=1;jettySize=auto;html=1;exitX=0;exitY=0.5;exitDx=0;exitDy=0;entryX=1;entryY=0.5;entryDx=0;entryDy=0;" edge="1" parent="1" source="e0YomdGTlNmDe-Sjkuyy-74" target="e0YomdGTlNmDe-Sjkuyy-314">
          <mxGeometry relative="1" as="geometry">
            <mxPoint x="82" y="1030" as="targetPoint" />
          </mxGeometry>
        </mxCell>
        <mxCell id="e0YomdGTlNmDe-Sjkuyy-319" style="edgeStyle=orthogonalEdgeStyle;rounded=0;jumpStyle=none;orthogonalLoop=1;jettySize=auto;html=1;exitX=0;exitY=0.5;exitDx=0;exitDy=0;entryX=1;entryY=0.5;entryDx=0;entryDy=0;" edge="1" parent="1" source="e0YomdGTlNmDe-Sjkuyy-74" target="e0YomdGTlNmDe-Sjkuyy-318">
          <mxGeometry relative="1" as="geometry" />
        </mxCell>
        <mxCell id="e0YomdGTlNmDe-Sjkuyy-337" style="edgeStyle=orthogonalEdgeStyle;rounded=0;jumpStyle=none;orthogonalLoop=1;jettySize=auto;html=1;exitX=0;exitY=0.5;exitDx=0;exitDy=0;entryX=1;entryY=0.5;entryDx=0;entryDy=0;" edge="1" parent="1" source="e0YomdGTlNmDe-Sjkuyy-74" target="e0YomdGTlNmDe-Sjkuyy-336">
          <mxGeometry relative="1" as="geometry" />
        </mxCell>
        <mxCell id="e0YomdGTlNmDe-Sjkuyy-74" value="&lt;meta charset=&quot;utf-8&quot;&gt;&lt;span style=&quot;color: rgb(0, 0, 0); font-family: helvetica; font-size: 12px; font-style: normal; font-weight: 400; letter-spacing: normal; text-align: center; text-indent: 0px; text-transform: none; word-spacing: 0px; background-color: rgb(248, 249, 250); display: inline; float: none;&quot;&gt;Форма добавления нового объекта&lt;/span&gt;" style="shape=parallelogram;perimeter=parallelogramPerimeter;whiteSpace=wrap;html=1;fixedSize=1;" vertex="1" parent="1">
          <mxGeometry x="122" y="262" width="170" height="60" as="geometry" />
        </mxCell>
        <mxCell id="e0YomdGTlNmDe-Sjkuyy-80" style="edgeStyle=orthogonalEdgeStyle;rounded=0;orthogonalLoop=1;jettySize=auto;html=1;exitX=0;exitY=0.5;exitDx=0;exitDy=0;entryX=1;entryY=0.5;entryDx=0;entryDy=0;dashed=1;" edge="1" parent="1" source="e0YomdGTlNmDe-Sjkuyy-78" target="e0YomdGTlNmDe-Sjkuyy-67">
          <mxGeometry relative="1" as="geometry">
            <Array as="points">
              <mxPoint x="-1380" y="330" />
              <mxPoint x="-1380" y="280" />
              <mxPoint x="-990" y="280" />
              <mxPoint x="-990" y="360" />
            </Array>
          </mxGeometry>
        </mxCell>
        <mxCell id="e0YomdGTlNmDe-Sjkuyy-78" value="Изменение информации в заявке" style="shape=parallelogram;perimeter=parallelogramPerimeter;whiteSpace=wrap;html=1;fixedSize=1;rounded=0;" vertex="1" parent="1">
          <mxGeometry x="-1350" y="300" width="170" height="60" as="geometry" />
        </mxCell>
        <mxCell id="e0YomdGTlNmDe-Sjkuyy-84" style="edgeStyle=orthogonalEdgeStyle;rounded=0;orthogonalLoop=1;jettySize=auto;html=1;exitX=0;exitY=0.5;exitDx=0;exitDy=0;entryX=1;entryY=0.5;entryDx=0;entryDy=0;dashed=1;" edge="1" parent="1" source="e0YomdGTlNmDe-Sjkuyy-82" target="e0YomdGTlNmDe-Sjkuyy-67">
          <mxGeometry relative="1" as="geometry">
            <Array as="points">
              <mxPoint x="-1380" y="410" />
              <mxPoint x="-1380" y="470" />
              <mxPoint x="-990" y="470" />
              <mxPoint x="-990" y="360" />
            </Array>
          </mxGeometry>
        </mxCell>
        <mxCell id="e0YomdGTlNmDe-Sjkuyy-82" value="Быстрое изменение&lt;br&gt;статуса заявки" style="shape=parallelogram;perimeter=parallelogramPerimeter;whiteSpace=wrap;html=1;fixedSize=1;rounded=0;" vertex="1" parent="1">
          <mxGeometry x="-1350" y="380" width="170" height="60" as="geometry" />
        </mxCell>
        <mxCell id="e0YomdGTlNmDe-Sjkuyy-85" value="Связанный с заявкой объект" style="text;html=1;strokeColor=none;fillColor=none;align=center;verticalAlign=middle;whiteSpace=wrap;rounded=0;" vertex="1" parent="1">
          <mxGeometry x="-1660" y="100" width="180" height="120" as="geometry" />
        </mxCell>
        <mxCell id="e0YomdGTlNmDe-Sjkuyy-92" value="Поля" style="text;html=1;strokeColor=none;fillColor=none;align=center;verticalAlign=middle;whiteSpace=wrap;rounded=0;" vertex="1" parent="1">
          <mxGeometry x="-58" y="102" width="40" height="20" as="geometry" />
        </mxCell>
        <mxCell id="e0YomdGTlNmDe-Sjkuyy-175" style="edgeStyle=orthogonalEdgeStyle;rounded=0;orthogonalLoop=1;jettySize=auto;html=1;exitX=0;exitY=0.5;exitDx=0;exitDy=0;entryX=1;entryY=0.5;entryDx=0;entryDy=0;" edge="1" parent="1" source="e0YomdGTlNmDe-Sjkuyy-93" target="e0YomdGTlNmDe-Sjkuyy-162">
          <mxGeometry relative="1" as="geometry" />
        </mxCell>
        <mxCell id="e0YomdGTlNmDe-Sjkuyy-176" value="&lt;span style=&quot;font-size: 12px ; background-color: rgb(248 , 249 , 250)&quot;&gt;string&lt;/span&gt;" style="edgeLabel;html=1;align=center;verticalAlign=middle;resizable=0;points=[];" vertex="1" connectable="0" parent="e0YomdGTlNmDe-Sjkuyy-175">
          <mxGeometry x="-0.8028" y="2" relative="1" as="geometry">
            <mxPoint x="-6.210000000000001" y="-1.99" as="offset" />
          </mxGeometry>
        </mxCell>
        <mxCell id="e0YomdGTlNmDe-Sjkuyy-93" value="Название объекта" style="rounded=0;whiteSpace=wrap;html=1;" vertex="1" parent="1">
          <mxGeometry y="112" width="80" height="50" as="geometry" />
        </mxCell>
        <mxCell id="e0YomdGTlNmDe-Sjkuyy-169" style="edgeStyle=orthogonalEdgeStyle;rounded=0;orthogonalLoop=1;jettySize=auto;html=1;exitX=0;exitY=0.5;exitDx=0;exitDy=0;entryX=1;entryY=0.5;entryDx=0;entryDy=0;" edge="1" parent="1" source="e0YomdGTlNmDe-Sjkuyy-96" target="e0YomdGTlNmDe-Sjkuyy-162">
          <mxGeometry relative="1" as="geometry" />
        </mxCell>
        <mxCell id="e0YomdGTlNmDe-Sjkuyy-177" value="&lt;span style=&quot;font-size: 12px ; background-color: rgb(248 , 249 , 250)&quot;&gt;string multy&lt;/span&gt;" style="edgeLabel;html=1;align=center;verticalAlign=middle;resizable=0;points=[];" vertex="1" connectable="0" parent="e0YomdGTlNmDe-Sjkuyy-169">
          <mxGeometry x="-0.7442" y="-2" relative="1" as="geometry">
            <mxPoint x="-12" y="-1" as="offset" />
          </mxGeometry>
        </mxCell>
        <mxCell id="e0YomdGTlNmDe-Sjkuyy-96" value="Путь на сервере к папке с объектом" style="rounded=0;whiteSpace=wrap;html=1;" vertex="1" parent="1">
          <mxGeometry y="240" width="80" height="50" as="geometry" />
        </mxCell>
        <mxCell id="e0YomdGTlNmDe-Sjkuyy-172" style="edgeStyle=orthogonalEdgeStyle;rounded=0;orthogonalLoop=1;jettySize=auto;html=1;exitX=0;exitY=0.5;exitDx=0;exitDy=0;entryX=1;entryY=0.5;entryDx=0;entryDy=0;" edge="1" parent="1" source="e0YomdGTlNmDe-Sjkuyy-98" target="e0YomdGTlNmDe-Sjkuyy-162">
          <mxGeometry relative="1" as="geometry" />
        </mxCell>
        <mxCell id="e0YomdGTlNmDe-Sjkuyy-179" value="&lt;span style=&quot;font-size: 12px ; background-color: rgb(248 , 249 , 250)&quot;&gt;file&lt;/span&gt;" style="edgeLabel;html=1;align=center;verticalAlign=middle;resizable=0;points=[];" vertex="1" connectable="0" parent="e0YomdGTlNmDe-Sjkuyy-172">
          <mxGeometry x="-0.7078" y="-2" relative="1" as="geometry">
            <mxPoint x="-6.000000000000002" y="1.9999999999999998" as="offset" />
          </mxGeometry>
        </mxCell>
        <mxCell id="e0YomdGTlNmDe-Sjkuyy-98" value="Скан заявки на распечатку" style="rounded=0;whiteSpace=wrap;html=1;" vertex="1" parent="1">
          <mxGeometry y="380" width="80" height="50" as="geometry" />
        </mxCell>
        <mxCell id="e0YomdGTlNmDe-Sjkuyy-173" style="edgeStyle=orthogonalEdgeStyle;rounded=0;orthogonalLoop=1;jettySize=auto;html=1;exitX=0;exitY=0.5;exitDx=0;exitDy=0;entryX=1;entryY=0.5;entryDx=0;entryDy=0;" edge="1" parent="1" source="e0YomdGTlNmDe-Sjkuyy-99" target="e0YomdGTlNmDe-Sjkuyy-162">
          <mxGeometry relative="1" as="geometry" />
        </mxCell>
        <mxCell id="e0YomdGTlNmDe-Sjkuyy-180" value="&lt;span style=&quot;font-size: 12px ; background-color: rgb(248 , 249 , 250)&quot;&gt;string&lt;/span&gt;" style="edgeLabel;html=1;align=center;verticalAlign=middle;resizable=0;points=[];" vertex="1" connectable="0" parent="e0YomdGTlNmDe-Sjkuyy-173">
          <mxGeometry x="-0.7779" y="3" relative="1" as="geometry">
            <mxPoint x="-4.999999999999999" y="-3" as="offset" />
          </mxGeometry>
        </mxCell>
        <mxCell id="e0YomdGTlNmDe-Sjkuyy-99" value="Чей объект?" style="rounded=0;whiteSpace=wrap;html=1;" vertex="1" parent="1">
          <mxGeometry y="450" width="80" height="50" as="geometry" />
        </mxCell>
        <mxCell id="e0YomdGTlNmDe-Sjkuyy-215" style="edgeStyle=orthogonalEdgeStyle;rounded=0;orthogonalLoop=1;jettySize=auto;html=1;exitX=1;exitY=0.5;exitDx=0;exitDy=0;entryX=0.5;entryY=0;entryDx=0;entryDy=0;" edge="1" parent="1" source="e0YomdGTlNmDe-Sjkuyy-107" target="e0YomdGTlNmDe-Sjkuyy-48">
          <mxGeometry relative="1" as="geometry">
            <Array as="points">
              <mxPoint x="850" y="276" />
              <mxPoint x="850" y="140" />
              <mxPoint x="415" y="140" />
            </Array>
          </mxGeometry>
        </mxCell>
        <mxCell id="e0YomdGTlNmDe-Sjkuyy-107" value="Изменение информации&lt;br&gt;об объекте" style="shape=parallelogram;perimeter=parallelogramPerimeter;whiteSpace=wrap;html=1;fixedSize=1;" vertex="1" parent="1">
          <mxGeometry x="630" y="246" width="170" height="60" as="geometry" />
        </mxCell>
        <mxCell id="e0YomdGTlNmDe-Sjkuyy-117" style="edgeStyle=orthogonalEdgeStyle;rounded=0;orthogonalLoop=1;jettySize=auto;html=1;exitX=0;exitY=0.5;exitDx=0;exitDy=0;entryX=1;entryY=0.5;entryDx=0;entryDy=0;" edge="1" parent="1" source="e0YomdGTlNmDe-Sjkuyy-109" target="e0YomdGTlNmDe-Sjkuyy-113">
          <mxGeometry relative="1" as="geometry" />
        </mxCell>
        <mxCell id="e0YomdGTlNmDe-Sjkuyy-129" style="edgeStyle=orthogonalEdgeStyle;rounded=0;orthogonalLoop=1;jettySize=auto;html=1;exitX=0;exitY=0.5;exitDx=0;exitDy=0;entryX=1;entryY=0.5;entryDx=0;entryDy=0;" edge="1" parent="1" source="e0YomdGTlNmDe-Sjkuyy-109" target="e0YomdGTlNmDe-Sjkuyy-127">
          <mxGeometry relative="1" as="geometry" />
        </mxCell>
        <mxCell id="e0YomdGTlNmDe-Sjkuyy-147" style="edgeStyle=orthogonalEdgeStyle;rounded=0;orthogonalLoop=1;jettySize=auto;html=1;exitX=0;exitY=0.5;exitDx=0;exitDy=0;entryX=1;entryY=0.5;entryDx=0;entryDy=0;" edge="1" parent="1" source="e0YomdGTlNmDe-Sjkuyy-109" target="e0YomdGTlNmDe-Sjkuyy-145">
          <mxGeometry relative="1" as="geometry" />
        </mxCell>
        <mxCell id="e0YomdGTlNmDe-Sjkuyy-152" style="edgeStyle=orthogonalEdgeStyle;rounded=0;orthogonalLoop=1;jettySize=auto;html=1;exitX=0;exitY=0.5;exitDx=0;exitDy=0;entryX=0;entryY=0.5;entryDx=0;entryDy=0;" edge="1" parent="1" source="e0YomdGTlNmDe-Sjkuyy-109" target="e0YomdGTlNmDe-Sjkuyy-150">
          <mxGeometry relative="1" as="geometry" />
        </mxCell>
        <mxCell id="e0YomdGTlNmDe-Sjkuyy-155" style="edgeStyle=orthogonalEdgeStyle;rounded=0;orthogonalLoop=1;jettySize=auto;html=1;exitX=0;exitY=0.5;exitDx=0;exitDy=0;entryX=1;entryY=0.5;entryDx=0;entryDy=0;" edge="1" parent="1" source="e0YomdGTlNmDe-Sjkuyy-109" target="e0YomdGTlNmDe-Sjkuyy-153">
          <mxGeometry relative="1" as="geometry" />
        </mxCell>
        <mxCell id="e0YomdGTlNmDe-Sjkuyy-343" style="edgeStyle=orthogonalEdgeStyle;rounded=0;jumpStyle=none;orthogonalLoop=1;jettySize=auto;html=1;exitX=0;exitY=0.5;exitDx=0;exitDy=0;entryX=1;entryY=0.5;entryDx=0;entryDy=0;" edge="1" parent="1" source="e0YomdGTlNmDe-Sjkuyy-109" target="e0YomdGTlNmDe-Sjkuyy-342">
          <mxGeometry relative="1" as="geometry" />
        </mxCell>
        <mxCell id="e0YomdGTlNmDe-Sjkuyy-109" value="Форма добавления&amp;nbsp;&lt;br&gt;состава проекта" style="shape=parallelogram;perimeter=parallelogramPerimeter;whiteSpace=wrap;html=1;fixedSize=1;" vertex="1" parent="1">
          <mxGeometry x="653" y="850" width="174" height="60" as="geometry" />
        </mxCell>
        <mxCell id="e0YomdGTlNmDe-Sjkuyy-111" value="Поля" style="text;html=1;strokeColor=none;fillColor=none;align=center;verticalAlign=middle;whiteSpace=wrap;rounded=0;" vertex="1" parent="1">
          <mxGeometry x="434" y="695" width="40" height="20" as="geometry" />
        </mxCell>
        <mxCell id="e0YomdGTlNmDe-Sjkuyy-189" style="edgeStyle=orthogonalEdgeStyle;rounded=0;orthogonalLoop=1;jettySize=auto;html=1;exitX=0;exitY=0.5;exitDx=0;exitDy=0;entryX=1;entryY=0.5;entryDx=0;entryDy=0;" edge="1" parent="1" source="e0YomdGTlNmDe-Sjkuyy-113" target="e0YomdGTlNmDe-Sjkuyy-187">
          <mxGeometry relative="1" as="geometry">
            <Array as="points">
              <mxPoint x="360" y="810" />
              <mxPoint x="360" y="885" />
            </Array>
          </mxGeometry>
        </mxCell>
        <mxCell id="e0YomdGTlNmDe-Sjkuyy-195" value="&lt;span style=&quot;font-size: 12px ; background-color: rgb(248 , 249 , 250)&quot;&gt;string&lt;/span&gt;" style="edgeLabel;html=1;align=center;verticalAlign=middle;resizable=0;points=[];" vertex="1" connectable="0" parent="e0YomdGTlNmDe-Sjkuyy-189">
          <mxGeometry x="-0.45" y="1" relative="1" as="geometry">
            <mxPoint x="-14.900000000000002" y="-1" as="offset" />
          </mxGeometry>
        </mxCell>
        <mxCell id="e0YomdGTlNmDe-Sjkuyy-113" value="Название тома" style="rounded=0;whiteSpace=wrap;html=1;" vertex="1" parent="1">
          <mxGeometry x="523" y="785" width="80" height="50" as="geometry" />
        </mxCell>
        <mxCell id="e0YomdGTlNmDe-Sjkuyy-124" style="edgeStyle=orthogonalEdgeStyle;rounded=0;orthogonalLoop=1;jettySize=auto;html=1;exitX=0;exitY=0.5;exitDx=0;exitDy=0;entryX=1;entryY=0.5;entryDx=0;entryDy=0;" edge="1" parent="1" source="e0YomdGTlNmDe-Sjkuyy-114" target="e0YomdGTlNmDe-Sjkuyy-122">
          <mxGeometry relative="1" as="geometry" />
        </mxCell>
        <mxCell id="e0YomdGTlNmDe-Sjkuyy-114" value="Форма добавления комментария" style="shape=parallelogram;perimeter=parallelogramPerimeter;whiteSpace=wrap;html=1;fixedSize=1;" vertex="1" parent="1">
          <mxGeometry x="653" y="1230" width="174" height="60" as="geometry" />
        </mxCell>
        <mxCell id="e0YomdGTlNmDe-Sjkuyy-121" value="Поля" style="text;html=1;strokeColor=none;fillColor=none;align=center;verticalAlign=middle;whiteSpace=wrap;rounded=0;" vertex="1" parent="1">
          <mxGeometry x="543" y="1205" width="40" height="20" as="geometry" />
        </mxCell>
        <mxCell id="e0YomdGTlNmDe-Sjkuyy-205" style="edgeStyle=orthogonalEdgeStyle;rounded=0;orthogonalLoop=1;jettySize=auto;html=1;exitX=0;exitY=0.5;exitDx=0;exitDy=0;entryX=1;entryY=0.5;entryDx=0;entryDy=0;" edge="1" parent="1" source="e0YomdGTlNmDe-Sjkuyy-122" target="e0YomdGTlNmDe-Sjkuyy-203">
          <mxGeometry relative="1" as="geometry" />
        </mxCell>
        <mxCell id="e0YomdGTlNmDe-Sjkuyy-210" value="&lt;span style=&quot;font-size: 12px ; background-color: rgb(248 , 249 , 250)&quot;&gt;string&lt;/span&gt;" style="edgeLabel;html=1;align=center;verticalAlign=middle;resizable=0;points=[];" vertex="1" connectable="0" parent="e0YomdGTlNmDe-Sjkuyy-205">
          <mxGeometry x="-0.3522" y="1" relative="1" as="geometry">
            <mxPoint as="offset" />
          </mxGeometry>
        </mxCell>
        <mxCell id="e0YomdGTlNmDe-Sjkuyy-122" value="Текст комментария" style="rounded=0;whiteSpace=wrap;html=1;" vertex="1" parent="1">
          <mxGeometry x="523" y="1235" width="80" height="50" as="geometry" />
        </mxCell>
        <mxCell id="e0YomdGTlNmDe-Sjkuyy-190" style="edgeStyle=orthogonalEdgeStyle;rounded=0;orthogonalLoop=1;jettySize=auto;html=1;exitX=0;exitY=0.5;exitDx=0;exitDy=0;entryX=1;entryY=0.5;entryDx=0;entryDy=0;" edge="1" parent="1" source="e0YomdGTlNmDe-Sjkuyy-127" target="e0YomdGTlNmDe-Sjkuyy-187">
          <mxGeometry relative="1" as="geometry" />
        </mxCell>
        <mxCell id="e0YomdGTlNmDe-Sjkuyy-196" value="&lt;span style=&quot;font-size: 12px ; background-color: rgb(248 , 249 , 250)&quot;&gt;string выпадающий список&lt;/span&gt;" style="edgeLabel;html=1;align=center;verticalAlign=middle;resizable=0;points=[];" vertex="1" connectable="0" parent="e0YomdGTlNmDe-Sjkuyy-190">
          <mxGeometry x="-0.4481" y="1" relative="1" as="geometry">
            <mxPoint x="-33.86" y="-1" as="offset" />
          </mxGeometry>
        </mxCell>
        <mxCell id="e0YomdGTlNmDe-Sjkuyy-127" value="ПД/РД/ИИ" style="rounded=0;whiteSpace=wrap;html=1;" vertex="1" parent="1">
          <mxGeometry x="523" y="855" width="80" height="50" as="geometry" />
        </mxCell>
        <mxCell id="e0YomdGTlNmDe-Sjkuyy-171" style="edgeStyle=orthogonalEdgeStyle;rounded=0;orthogonalLoop=1;jettySize=auto;html=1;exitX=0;exitY=0.5;exitDx=0;exitDy=0;entryX=1;entryY=0.5;entryDx=0;entryDy=0;" edge="1" parent="1" source="e0YomdGTlNmDe-Sjkuyy-130" target="e0YomdGTlNmDe-Sjkuyy-162">
          <mxGeometry relative="1" as="geometry" />
        </mxCell>
        <mxCell id="e0YomdGTlNmDe-Sjkuyy-178" value="&lt;span style=&quot;font-size: 12px ; background-color: rgb(248 , 249 , 250)&quot;&gt;string&lt;/span&gt;" style="edgeLabel;html=1;align=center;verticalAlign=middle;resizable=0;points=[];" vertex="1" connectable="0" parent="e0YomdGTlNmDe-Sjkuyy-171">
          <mxGeometry x="-0.6847" y="2" relative="1" as="geometry">
            <mxPoint x="-12.41" y="-2.01" as="offset" />
          </mxGeometry>
        </mxCell>
        <mxCell id="e0YomdGTlNmDe-Sjkuyy-130" value="Шифр объекта" style="rounded=0;whiteSpace=wrap;html=1;" vertex="1" parent="1">
          <mxGeometry y="310" width="80" height="50" as="geometry" />
        </mxCell>
        <mxCell id="e0YomdGTlNmDe-Sjkuyy-235" style="edgeStyle=orthogonalEdgeStyle;rounded=0;orthogonalLoop=1;jettySize=auto;html=1;exitX=1;exitY=0.5;exitDx=0;exitDy=0;entryX=0.5;entryY=0;entryDx=0;entryDy=0;" edge="1" parent="1" source="e0YomdGTlNmDe-Sjkuyy-134" target="e0YomdGTlNmDe-Sjkuyy-48">
          <mxGeometry relative="1" as="geometry">
            <Array as="points">
              <mxPoint x="850" y="192" />
              <mxPoint x="850" y="140" />
              <mxPoint x="415" y="140" />
            </Array>
          </mxGeometry>
        </mxCell>
        <mxCell id="e0YomdGTlNmDe-Sjkuyy-134" value="Изменение статуса объекта&lt;br&gt;(сдан/не сдан)" style="shape=parallelogram;perimeter=parallelogramPerimeter;whiteSpace=wrap;html=1;fixedSize=1;" vertex="1" parent="1">
          <mxGeometry x="630" y="162" width="170" height="60" as="geometry" />
        </mxCell>
        <mxCell id="e0YomdGTlNmDe-Sjkuyy-328" style="edgeStyle=orthogonalEdgeStyle;rounded=0;jumpStyle=none;orthogonalLoop=1;jettySize=auto;html=1;exitX=1;exitY=0.5;exitDx=0;exitDy=0;entryX=0.5;entryY=0;entryDx=0;entryDy=0;" edge="1" parent="1" source="e0YomdGTlNmDe-Sjkuyy-136" target="e0YomdGTlNmDe-Sjkuyy-327">
          <mxGeometry relative="1" as="geometry" />
        </mxCell>
        <mxCell id="e0YomdGTlNmDe-Sjkuyy-136" value="Просмотр архива объектов (сданных)" style="rounded=0;whiteSpace=wrap;html=1;" vertex="1" parent="1">
          <mxGeometry x="354" y="520" width="120" height="60" as="geometry" />
        </mxCell>
        <mxCell id="e0YomdGTlNmDe-Sjkuyy-174" style="edgeStyle=orthogonalEdgeStyle;rounded=0;orthogonalLoop=1;jettySize=auto;html=1;exitX=0;exitY=0.5;exitDx=0;exitDy=0;entryX=1;entryY=0.5;entryDx=0;entryDy=0;" edge="1" parent="1" source="e0YomdGTlNmDe-Sjkuyy-142" target="e0YomdGTlNmDe-Sjkuyy-162">
          <mxGeometry relative="1" as="geometry" />
        </mxCell>
        <mxCell id="e0YomdGTlNmDe-Sjkuyy-182" value="&lt;span style=&quot;font-size: 12px ; background-color: rgb(248 , 249 , 250)&quot;&gt;unsigned int hidden&lt;/span&gt;" style="edgeLabel;html=1;align=center;verticalAlign=middle;resizable=0;points=[];" vertex="1" connectable="0" parent="e0YomdGTlNmDe-Sjkuyy-174">
          <mxGeometry x="-0.6845" y="3" relative="1" as="geometry">
            <mxPoint x="17" y="-3" as="offset" />
          </mxGeometry>
        </mxCell>
        <mxCell id="e0YomdGTlNmDe-Sjkuyy-142" value="Состояние" style="rounded=0;whiteSpace=wrap;html=1;" vertex="1" parent="1">
          <mxGeometry y="520" width="80" height="50" as="geometry" />
        </mxCell>
        <mxCell id="e0YomdGTlNmDe-Sjkuyy-191" style="edgeStyle=orthogonalEdgeStyle;rounded=0;orthogonalLoop=1;jettySize=auto;html=1;exitX=0;exitY=0.5;exitDx=0;exitDy=0;entryX=1;entryY=0.5;entryDx=0;entryDy=0;" edge="1" parent="1" source="e0YomdGTlNmDe-Sjkuyy-145" target="e0YomdGTlNmDe-Sjkuyy-187">
          <mxGeometry relative="1" as="geometry">
            <Array as="points">
              <mxPoint x="360" y="1010" />
              <mxPoint x="360" y="885" />
            </Array>
          </mxGeometry>
        </mxCell>
        <mxCell id="e0YomdGTlNmDe-Sjkuyy-197" value="&lt;span style=&quot;font-size: 12px ; background-color: rgb(248 , 249 , 250)&quot;&gt;bool hidden&lt;/span&gt;" style="edgeLabel;html=1;align=center;verticalAlign=middle;resizable=0;points=[];" vertex="1" connectable="0" parent="e0YomdGTlNmDe-Sjkuyy-191">
          <mxGeometry x="-0.3544" y="2" relative="1" as="geometry">
            <mxPoint x="13.67" y="-2" as="offset" />
          </mxGeometry>
        </mxCell>
        <mxCell id="e0YomdGTlNmDe-Sjkuyy-145" value="напечатано/не напечатано" style="rounded=0;whiteSpace=wrap;html=1;" vertex="1" parent="1">
          <mxGeometry x="523" y="985" width="80" height="50" as="geometry" />
        </mxCell>
        <mxCell id="e0YomdGTlNmDe-Sjkuyy-193" style="edgeStyle=orthogonalEdgeStyle;rounded=0;orthogonalLoop=1;jettySize=auto;html=1;exitX=1;exitY=0.5;exitDx=0;exitDy=0;entryX=1;entryY=0.5;entryDx=0;entryDy=0;" edge="1" parent="1" source="e0YomdGTlNmDe-Sjkuyy-150" target="e0YomdGTlNmDe-Sjkuyy-187">
          <mxGeometry relative="1" as="geometry">
            <Array as="points">
              <mxPoint x="360" y="1080" />
              <mxPoint x="360" y="885" />
            </Array>
          </mxGeometry>
        </mxCell>
        <mxCell id="e0YomdGTlNmDe-Sjkuyy-198" value="&lt;span style=&quot;font-size: 12px ; background-color: rgb(248 , 249 , 250)&quot;&gt;bool hidden&lt;/span&gt;" style="edgeLabel;html=1;align=center;verticalAlign=middle;resizable=0;points=[];" vertex="1" connectable="0" parent="e0YomdGTlNmDe-Sjkuyy-193">
          <mxGeometry x="-0.4609" relative="1" as="geometry">
            <mxPoint x="19" as="offset" />
          </mxGeometry>
        </mxCell>
        <mxCell id="e0YomdGTlNmDe-Sjkuyy-150" value="Были изменения" style="rounded=0;whiteSpace=wrap;html=1;direction=west;" vertex="1" parent="1">
          <mxGeometry x="523" y="1055" width="80" height="50" as="geometry" />
        </mxCell>
        <mxCell id="e0YomdGTlNmDe-Sjkuyy-188" style="edgeStyle=orthogonalEdgeStyle;rounded=0;orthogonalLoop=1;jettySize=auto;html=1;exitX=0;exitY=0.5;exitDx=0;exitDy=0;entryX=1;entryY=0.5;entryDx=0;entryDy=0;" edge="1" parent="1" source="e0YomdGTlNmDe-Sjkuyy-153" target="e0YomdGTlNmDe-Sjkuyy-187">
          <mxGeometry relative="1" as="geometry">
            <Array as="points">
              <mxPoint x="360" y="740" />
              <mxPoint x="360" y="885" />
            </Array>
          </mxGeometry>
        </mxCell>
        <mxCell id="e0YomdGTlNmDe-Sjkuyy-194" value="&lt;span style=&quot;font-size: 12px ; background-color: rgb(248 , 249 , 250)&quot;&gt;unsigned int hidden&lt;/span&gt;" style="edgeLabel;html=1;align=center;verticalAlign=middle;resizable=0;points=[];" vertex="1" connectable="0" parent="e0YomdGTlNmDe-Sjkuyy-188">
          <mxGeometry x="-0.592" y="1" relative="1" as="geometry">
            <mxPoint x="-8" y="-1" as="offset" />
          </mxGeometry>
        </mxCell>
        <mxCell id="e0YomdGTlNmDe-Sjkuyy-153" value="ID объекта" style="rounded=0;whiteSpace=wrap;html=1;" vertex="1" parent="1">
          <mxGeometry x="523" y="715" width="80" height="50" as="geometry" />
        </mxCell>
        <mxCell id="e0YomdGTlNmDe-Sjkuyy-156" value="Изменение статуса напечатано/не напечатано" style="shape=parallelogram;perimeter=parallelogramPerimeter;whiteSpace=wrap;html=1;fixedSize=1;" vertex="1" parent="1">
          <mxGeometry x="1333" y="925" width="170" height="60" as="geometry" />
        </mxCell>
        <mxCell id="e0YomdGTlNmDe-Sjkuyy-158" value="" style="endArrow=classic;startArrow=classic;html=1;exitX=1;exitY=0.5;exitDx=0;exitDy=0;entryX=0;entryY=0.5;entryDx=0;entryDy=0;fillColor=#d5e8d4;strokeColor=#82b366;" edge="1" parent="1" source="e0YomdGTlNmDe-Sjkuyy-50" target="e0YomdGTlNmDe-Sjkuyy-156">
          <mxGeometry width="50" height="50" relative="1" as="geometry">
            <mxPoint x="1403" y="1085" as="sourcePoint" />
            <mxPoint x="1453" y="1035" as="targetPoint" />
            <Array as="points">
              <mxPoint x="1280" y="1023" />
              <mxPoint x="1280" y="955" />
            </Array>
          </mxGeometry>
        </mxCell>
        <mxCell id="e0YomdGTlNmDe-Sjkuyy-313" style="edgeStyle=orthogonalEdgeStyle;rounded=0;jumpStyle=none;orthogonalLoop=1;jettySize=auto;html=1;exitX=1;exitY=0.5;exitDx=0;exitDy=0;entryX=0;entryY=0.5;entryDx=0;entryDy=0;" edge="1" parent="1" source="e0YomdGTlNmDe-Sjkuyy-159" target="e0YomdGTlNmDe-Sjkuyy-311">
          <mxGeometry relative="1" as="geometry" />
        </mxCell>
        <mxCell id="e0YomdGTlNmDe-Sjkuyy-159" value="Изменение статуса&amp;nbsp;&lt;br&gt;появились правки" style="shape=parallelogram;perimeter=parallelogramPerimeter;whiteSpace=wrap;html=1;fixedSize=1;" vertex="1" parent="1">
          <mxGeometry x="1333" y="1005" width="170" height="60" as="geometry" />
        </mxCell>
        <mxCell id="e0YomdGTlNmDe-Sjkuyy-183" style="edgeStyle=orthogonalEdgeStyle;rounded=0;orthogonalLoop=1;jettySize=auto;html=1;exitX=0.5;exitY=0;exitDx=0;exitDy=0;entryX=0.548;entryY=0.002;entryDx=0;entryDy=0;entryPerimeter=0;fillColor=#f8cecc;strokeColor=#b85450;" edge="1" parent="1" source="e0YomdGTlNmDe-Sjkuyy-162" target="e0YomdGTlNmDe-Sjkuyy-74">
          <mxGeometry relative="1" as="geometry">
            <Array as="points">
              <mxPoint x="-198" y="92" />
              <mxPoint x="215" y="92" />
            </Array>
          </mxGeometry>
        </mxCell>
        <mxCell id="e0YomdGTlNmDe-Sjkuyy-184" value="нет" style="edgeLabel;html=1;align=center;verticalAlign=middle;resizable=0;points=[];" vertex="1" connectable="0" parent="e0YomdGTlNmDe-Sjkuyy-183">
          <mxGeometry x="-0.9493" relative="1" as="geometry">
            <mxPoint as="offset" />
          </mxGeometry>
        </mxCell>
        <mxCell id="e0YomdGTlNmDe-Sjkuyy-185" style="edgeStyle=orthogonalEdgeStyle;rounded=0;orthogonalLoop=1;jettySize=auto;html=1;exitX=0;exitY=0.5;exitDx=0;exitDy=0;entryX=0.5;entryY=0;entryDx=0;entryDy=0;fillColor=#d5e8d4;strokeColor=#82b366;" edge="1" parent="1" source="e0YomdGTlNmDe-Sjkuyy-162" target="e0YomdGTlNmDe-Sjkuyy-48">
          <mxGeometry relative="1" as="geometry">
            <Array as="points">
              <mxPoint x="-260" y="322" />
              <mxPoint x="-260" y="40" />
              <mxPoint x="270" y="40" />
              <mxPoint x="270" y="170" />
              <mxPoint x="414" y="170" />
            </Array>
          </mxGeometry>
        </mxCell>
        <mxCell id="e0YomdGTlNmDe-Sjkuyy-186" value="да" style="edgeLabel;html=1;align=center;verticalAlign=middle;resizable=0;points=[];" vertex="1" connectable="0" parent="e0YomdGTlNmDe-Sjkuyy-185">
          <mxGeometry x="-0.9079" y="-1" relative="1" as="geometry">
            <mxPoint as="offset" />
          </mxGeometry>
        </mxCell>
        <mxCell id="e0YomdGTlNmDe-Sjkuyy-162" value="Успешно?" style="rhombus;whiteSpace=wrap;html=1;" vertex="1" parent="1">
          <mxGeometry x="-238" y="282" width="80" height="80" as="geometry" />
        </mxCell>
        <mxCell id="e0YomdGTlNmDe-Sjkuyy-199" style="edgeStyle=orthogonalEdgeStyle;rounded=0;orthogonalLoop=1;jettySize=auto;html=1;exitX=0.5;exitY=0;exitDx=0;exitDy=0;entryX=0.5;entryY=0;entryDx=0;entryDy=0;fillColor=#f8cecc;strokeColor=#b85450;" edge="1" parent="1" source="e0YomdGTlNmDe-Sjkuyy-187" target="e0YomdGTlNmDe-Sjkuyy-109">
          <mxGeometry relative="1" as="geometry">
            <Array as="points">
              <mxPoint x="310" y="660" />
              <mxPoint x="740" y="660" />
            </Array>
          </mxGeometry>
        </mxCell>
        <mxCell id="e0YomdGTlNmDe-Sjkuyy-201" value="нет" style="edgeLabel;html=1;align=center;verticalAlign=middle;resizable=0;points=[];" vertex="1" connectable="0" parent="e0YomdGTlNmDe-Sjkuyy-199">
          <mxGeometry x="-0.9427" relative="1" as="geometry">
            <mxPoint as="offset" />
          </mxGeometry>
        </mxCell>
        <mxCell id="e0YomdGTlNmDe-Sjkuyy-200" style="edgeStyle=orthogonalEdgeStyle;rounded=0;orthogonalLoop=1;jettySize=auto;html=1;exitX=0;exitY=0.5;exitDx=0;exitDy=0;entryX=0.5;entryY=0;entryDx=0;entryDy=0;fillColor=#d5e8d4;strokeColor=#82b366;" edge="1" parent="1" source="e0YomdGTlNmDe-Sjkuyy-187" target="e0YomdGTlNmDe-Sjkuyy-50">
          <mxGeometry relative="1" as="geometry">
            <Array as="points">
              <mxPoint x="240" y="885" />
              <mxPoint x="240" y="620" />
              <mxPoint x="1067" y="620" />
            </Array>
          </mxGeometry>
        </mxCell>
        <mxCell id="e0YomdGTlNmDe-Sjkuyy-202" value="да" style="edgeLabel;html=1;align=center;verticalAlign=middle;resizable=0;points=[];" vertex="1" connectable="0" parent="e0YomdGTlNmDe-Sjkuyy-200">
          <mxGeometry x="-0.9275" relative="1" as="geometry">
            <mxPoint as="offset" />
          </mxGeometry>
        </mxCell>
        <mxCell id="e0YomdGTlNmDe-Sjkuyy-187" value="Успешно?" style="rhombus;whiteSpace=wrap;html=1;" vertex="1" parent="1">
          <mxGeometry x="270" y="845" width="80" height="80" as="geometry" />
        </mxCell>
        <mxCell id="e0YomdGTlNmDe-Sjkuyy-206" style="edgeStyle=orthogonalEdgeStyle;rounded=0;orthogonalLoop=1;jettySize=auto;html=1;exitX=0.5;exitY=0;exitDx=0;exitDy=0;entryX=0.5;entryY=0;entryDx=0;entryDy=0;fillColor=#f8cecc;strokeColor=#b85450;" edge="1" parent="1" source="e0YomdGTlNmDe-Sjkuyy-203" target="e0YomdGTlNmDe-Sjkuyy-114">
          <mxGeometry relative="1" as="geometry" />
        </mxCell>
        <mxCell id="e0YomdGTlNmDe-Sjkuyy-208" value="нет" style="edgeLabel;html=1;align=center;verticalAlign=middle;resizable=0;points=[];" vertex="1" connectable="0" parent="e0YomdGTlNmDe-Sjkuyy-206">
          <mxGeometry x="-0.4947" y="-1" relative="1" as="geometry">
            <mxPoint y="-1" as="offset" />
          </mxGeometry>
        </mxCell>
        <mxCell id="e0YomdGTlNmDe-Sjkuyy-211" style="edgeStyle=orthogonalEdgeStyle;rounded=0;orthogonalLoop=1;jettySize=auto;html=1;exitX=0;exitY=0.5;exitDx=0;exitDy=0;entryX=0.5;entryY=0;entryDx=0;entryDy=0;fillColor=#d5e8d4;strokeColor=#82b366;" edge="1" parent="1" source="e0YomdGTlNmDe-Sjkuyy-203" target="e0YomdGTlNmDe-Sjkuyy-50">
          <mxGeometry relative="1" as="geometry">
            <Array as="points">
              <mxPoint x="270" y="1150" />
              <mxPoint x="833" y="1150" />
              <mxPoint x="833" y="865" />
              <mxPoint x="1067" y="865" />
            </Array>
          </mxGeometry>
        </mxCell>
        <mxCell id="e0YomdGTlNmDe-Sjkuyy-212" value="да" style="edgeLabel;html=1;align=center;verticalAlign=middle;resizable=0;points=[];" vertex="1" connectable="0" parent="e0YomdGTlNmDe-Sjkuyy-211">
          <mxGeometry x="-0.9549" y="1" relative="1" as="geometry">
            <mxPoint as="offset" />
          </mxGeometry>
        </mxCell>
        <mxCell id="e0YomdGTlNmDe-Sjkuyy-203" value="Успешно?" style="rhombus;whiteSpace=wrap;html=1;" vertex="1" parent="1">
          <mxGeometry x="270" y="1220" width="80" height="80" as="geometry" />
        </mxCell>
        <mxCell id="e0YomdGTlNmDe-Sjkuyy-219" value="" style="edgeStyle=orthogonalEdgeStyle;rounded=0;orthogonalLoop=1;jettySize=auto;html=1;" edge="1" parent="1" source="e0YomdGTlNmDe-Sjkuyy-216" target="e0YomdGTlNmDe-Sjkuyy-218">
          <mxGeometry relative="1" as="geometry" />
        </mxCell>
        <mxCell id="e0YomdGTlNmDe-Sjkuyy-216" value="Изменение состава проекта" style="shape=parallelogram;perimeter=parallelogramPerimeter;whiteSpace=wrap;html=1;fixedSize=1;" vertex="1" parent="1">
          <mxGeometry x="1330" y="825" width="173" height="60" as="geometry" />
        </mxCell>
        <mxCell id="e0YomdGTlNmDe-Sjkuyy-218" value="Отображается весь состав проекта с формой редактирования для каждого тома, а также добавления нового и удаления уже имеющегося тома" style="whiteSpace=wrap;html=1;" vertex="1" parent="1">
          <mxGeometry x="1609.5" y="800" width="160.5" height="110" as="geometry" />
        </mxCell>
        <mxCell id="e0YomdGTlNmDe-Sjkuyy-220" value="Изменение комментария" style="shape=parallelogram;perimeter=parallelogramPerimeter;whiteSpace=wrap;html=1;fixedSize=1;" vertex="1" parent="1">
          <mxGeometry x="1333" y="1100" width="167" height="60" as="geometry" />
        </mxCell>
        <mxCell id="e0YomdGTlNmDe-Sjkuyy-221" value="Удаление комментария" style="shape=parallelogram;perimeter=parallelogramPerimeter;whiteSpace=wrap;html=1;fixedSize=1;" vertex="1" parent="1">
          <mxGeometry x="1333" y="1180" width="167" height="60" as="geometry" />
        </mxCell>
        <mxCell id="e0YomdGTlNmDe-Sjkuyy-227" style="edgeStyle=orthogonalEdgeStyle;rounded=0;orthogonalLoop=1;jettySize=auto;html=1;exitX=0;exitY=0.5;exitDx=0;exitDy=0;entryX=1;entryY=0.5;entryDx=0;entryDy=0;" edge="1" parent="1" source="e0YomdGTlNmDe-Sjkuyy-226" target="e0YomdGTlNmDe-Sjkuyy-162">
          <mxGeometry relative="1" as="geometry" />
        </mxCell>
        <mxCell id="e0YomdGTlNmDe-Sjkuyy-228" value="bool hidden" style="edgeLabel;html=1;align=center;verticalAlign=middle;resizable=0;points=[];" vertex="1" connectable="0" parent="e0YomdGTlNmDe-Sjkuyy-227">
          <mxGeometry x="-0.7103" relative="1" as="geometry">
            <mxPoint x="26.83" y="-0.03" as="offset" />
          </mxGeometry>
        </mxCell>
        <mxCell id="e0YomdGTlNmDe-Sjkuyy-226" value="На паузе" style="rounded=0;whiteSpace=wrap;html=1;" vertex="1" parent="1">
          <mxGeometry y="588" width="80" height="50" as="geometry" />
        </mxCell>
        <mxCell id="e0YomdGTlNmDe-Sjkuyy-234" style="edgeStyle=orthogonalEdgeStyle;rounded=0;orthogonalLoop=1;jettySize=auto;html=1;exitX=1;exitY=0.5;exitDx=0;exitDy=0;entryX=0.5;entryY=0;entryDx=0;entryDy=0;" edge="1" parent="1" source="e0YomdGTlNmDe-Sjkuyy-232" target="e0YomdGTlNmDe-Sjkuyy-48">
          <mxGeometry relative="1" as="geometry">
            <Array as="points">
              <mxPoint x="850" y="354" />
              <mxPoint x="850" y="140" />
              <mxPoint x="415" y="140" />
            </Array>
          </mxGeometry>
        </mxCell>
        <mxCell id="e0YomdGTlNmDe-Sjkuyy-232" value="Изменение паузы" style="shape=parallelogram;perimeter=parallelogramPerimeter;whiteSpace=wrap;html=1;fixedSize=1;" vertex="1" parent="1">
          <mxGeometry x="630" y="324" width="170" height="60" as="geometry" />
        </mxCell>
        <mxCell id="e0YomdGTlNmDe-Sjkuyy-236" value="Будущее: придумать автоматический подсчет количества страниц в pdf" style="ellipse;whiteSpace=wrap;html=1;aspect=fixed;" vertex="1" parent="1">
          <mxGeometry x="2020" y="-200" width="200" height="200" as="geometry" />
        </mxCell>
        <mxCell id="e0YomdGTlNmDe-Sjkuyy-238" value="Поиск. Быстрый переход к информации объекта" style="rounded=0;whiteSpace=wrap;html=1;" vertex="1" parent="1">
          <mxGeometry x="1820" y="130" width="210" height="70" as="geometry" />
        </mxCell>
        <mxCell id="e0YomdGTlNmDe-Sjkuyy-242" style="edgeStyle=orthogonalEdgeStyle;rounded=0;orthogonalLoop=1;jettySize=auto;html=1;exitX=0;exitY=0.5;exitDx=0;exitDy=0;entryX=1;entryY=0.5;entryDx=0;entryDy=0;" edge="1" parent="1" source="e0YomdGTlNmDe-Sjkuyy-241" target="e0YomdGTlNmDe-Sjkuyy-162">
          <mxGeometry relative="1" as="geometry" />
        </mxCell>
        <mxCell id="e0YomdGTlNmDe-Sjkuyy-243" value="сущность" style="edgeLabel;html=1;align=center;verticalAlign=middle;resizable=0;points=[];" vertex="1" connectable="0" parent="e0YomdGTlNmDe-Sjkuyy-242">
          <mxGeometry x="-0.7213" y="2" relative="1" as="geometry">
            <mxPoint x="43" y="1" as="offset" />
          </mxGeometry>
        </mxCell>
        <mxCell id="e0YomdGTlNmDe-Sjkuyy-241" value="№ Накладной" style="rounded=0;whiteSpace=wrap;html=1;" vertex="1" parent="1">
          <mxGeometry y="710" width="80" height="50" as="geometry" />
        </mxCell>
        <mxCell id="e0YomdGTlNmDe-Sjkuyy-245" value="Подготовка к сдаче объекта" style="rounded=0;whiteSpace=wrap;html=1;" vertex="1" parent="1">
          <mxGeometry x="-610" y="995" width="120" height="60" as="geometry" />
        </mxCell>
        <mxCell id="e0YomdGTlNmDe-Sjkuyy-281" style="edgeStyle=orthogonalEdgeStyle;rounded=0;orthogonalLoop=1;jettySize=auto;html=1;exitX=0;exitY=0.5;exitDx=0;exitDy=0;entryX=1;entryY=0.5;entryDx=0;entryDy=0;fillColor=#f8cecc;strokeColor=#b85450;jumpStyle=none;" edge="1" parent="1" source="e0YomdGTlNmDe-Sjkuyy-246" target="e0YomdGTlNmDe-Sjkuyy-280">
          <mxGeometry relative="1" as="geometry" />
        </mxCell>
        <mxCell id="e0YomdGTlNmDe-Sjkuyy-282" value="нет" style="edgeLabel;html=1;align=center;verticalAlign=middle;resizable=0;points=[];" vertex="1" connectable="0" parent="e0YomdGTlNmDe-Sjkuyy-281">
          <mxGeometry x="0.3213" y="-1" relative="1" as="geometry">
            <mxPoint x="10.56" y="1" as="offset" />
          </mxGeometry>
        </mxCell>
        <mxCell id="e0YomdGTlNmDe-Sjkuyy-300" style="edgeStyle=orthogonalEdgeStyle;rounded=0;jumpStyle=none;orthogonalLoop=1;jettySize=auto;html=1;exitX=0.5;exitY=1;exitDx=0;exitDy=0;entryX=0.5;entryY=0;entryDx=0;entryDy=0;fillColor=#d5e8d4;strokeColor=#82b366;" edge="1" parent="1" source="e0YomdGTlNmDe-Sjkuyy-246" target="e0YomdGTlNmDe-Sjkuyy-283">
          <mxGeometry relative="1" as="geometry" />
        </mxCell>
        <mxCell id="e0YomdGTlNmDe-Sjkuyy-301" value="да" style="edgeLabel;html=1;align=center;verticalAlign=middle;resizable=0;points=[];" vertex="1" connectable="0" parent="e0YomdGTlNmDe-Sjkuyy-300">
          <mxGeometry x="-0.278" y="1" relative="1" as="geometry">
            <mxPoint as="offset" />
          </mxGeometry>
        </mxCell>
        <mxCell id="e0YomdGTlNmDe-Sjkuyy-246" value="объект готов на 100%?" style="rhombus;whiteSpace=wrap;html=1;" vertex="1" parent="1">
          <mxGeometry x="-602.5" y="1290" width="105" height="105" as="geometry" />
        </mxCell>
        <mxCell id="e0YomdGTlNmDe-Sjkuyy-271" style="edgeStyle=orthogonalEdgeStyle;rounded=0;orthogonalLoop=1;jettySize=auto;html=1;exitX=0;exitY=0.5;exitDx=0;exitDy=0;entryX=1;entryY=0.5;entryDx=0;entryDy=0;" edge="1" parent="1" source="e0YomdGTlNmDe-Sjkuyy-264" target="e0YomdGTlNmDe-Sjkuyy-162">
          <mxGeometry relative="1" as="geometry" />
        </mxCell>
        <mxCell id="e0YomdGTlNmDe-Sjkuyy-274" value="unsigned int" style="edgeLabel;html=1;align=center;verticalAlign=middle;resizable=0;points=[];" vertex="1" connectable="0" parent="e0YomdGTlNmDe-Sjkuyy-271">
          <mxGeometry x="-0.7795" y="-4" relative="1" as="geometry">
            <mxPoint x="33.03" y="4" as="offset" />
          </mxGeometry>
        </mxCell>
        <mxCell id="e0YomdGTlNmDe-Sjkuyy-264" value="Кол-во экз ПД" style="rounded=0;whiteSpace=wrap;html=1;" vertex="1" parent="1">
          <mxGeometry y="785" width="80" height="50" as="geometry" />
        </mxCell>
        <mxCell id="e0YomdGTlNmDe-Sjkuyy-272" style="edgeStyle=orthogonalEdgeStyle;rounded=0;orthogonalLoop=1;jettySize=auto;html=1;exitX=0;exitY=0.5;exitDx=0;exitDy=0;entryX=1;entryY=0.5;entryDx=0;entryDy=0;" edge="1" parent="1" source="e0YomdGTlNmDe-Sjkuyy-265" target="e0YomdGTlNmDe-Sjkuyy-162">
          <mxGeometry relative="1" as="geometry" />
        </mxCell>
        <mxCell id="e0YomdGTlNmDe-Sjkuyy-275" value="unsigned int" style="edgeLabel;html=1;align=center;verticalAlign=middle;resizable=0;points=[];" vertex="1" connectable="0" parent="e0YomdGTlNmDe-Sjkuyy-272">
          <mxGeometry x="-0.823" y="-1" relative="1" as="geometry">
            <mxPoint x="26.14" y="0.97" as="offset" />
          </mxGeometry>
        </mxCell>
        <mxCell id="e0YomdGTlNmDe-Sjkuyy-265" value="Кол-во экз РД" style="rounded=0;whiteSpace=wrap;html=1;" vertex="1" parent="1">
          <mxGeometry y="860" width="80" height="50" as="geometry" />
        </mxCell>
        <mxCell id="e0YomdGTlNmDe-Sjkuyy-273" style="edgeStyle=orthogonalEdgeStyle;rounded=0;orthogonalLoop=1;jettySize=auto;html=1;exitX=0;exitY=0.5;exitDx=0;exitDy=0;entryX=1;entryY=0.5;entryDx=0;entryDy=0;" edge="1" parent="1" source="e0YomdGTlNmDe-Sjkuyy-267" target="e0YomdGTlNmDe-Sjkuyy-162">
          <mxGeometry relative="1" as="geometry" />
        </mxCell>
        <mxCell id="e0YomdGTlNmDe-Sjkuyy-276" value="unsigned int" style="edgeLabel;html=1;align=center;verticalAlign=middle;resizable=0;points=[];" vertex="1" connectable="0" parent="e0YomdGTlNmDe-Sjkuyy-273">
          <mxGeometry x="-0.8544" y="2" relative="1" as="geometry">
            <mxPoint x="17.93" y="-2" as="offset" />
          </mxGeometry>
        </mxCell>
        <mxCell id="e0YomdGTlNmDe-Sjkuyy-267" value="Кол-во экз ИИ" style="rounded=0;whiteSpace=wrap;html=1;" vertex="1" parent="1">
          <mxGeometry y="935" width="80" height="50" as="geometry" />
        </mxCell>
        <mxCell id="e0YomdGTlNmDe-Sjkuyy-277" value="" style="endArrow=classic;startArrow=classic;html=1;entryX=1;entryY=0.5;entryDx=0;entryDy=0;exitX=0;exitY=0.5;exitDx=0;exitDy=0;fillColor=#d5e8d4;strokeColor=#82b366;" edge="1" parent="1" source="e0YomdGTlNmDe-Sjkuyy-220" target="e0YomdGTlNmDe-Sjkuyy-50">
          <mxGeometry width="50" height="50" relative="1" as="geometry">
            <mxPoint x="1140" y="1260" as="sourcePoint" />
            <mxPoint x="1190" y="1210" as="targetPoint" />
            <Array as="points">
              <mxPoint x="1280" y="1130" />
              <mxPoint x="1280" y="1023" />
            </Array>
          </mxGeometry>
        </mxCell>
        <mxCell id="e0YomdGTlNmDe-Sjkuyy-278" value="" style="endArrow=classic;startArrow=classic;html=1;exitX=1;exitY=0.5;exitDx=0;exitDy=0;entryX=0;entryY=0.5;entryDx=0;entryDy=0;fillColor=#d5e8d4;strokeColor=#82b366;" edge="1" parent="1" source="e0YomdGTlNmDe-Sjkuyy-50" target="e0YomdGTlNmDe-Sjkuyy-221">
          <mxGeometry width="50" height="50" relative="1" as="geometry">
            <mxPoint x="1170" y="1030" as="sourcePoint" />
            <mxPoint x="1220" y="980" as="targetPoint" />
            <Array as="points">
              <mxPoint x="1280" y="1023" />
              <mxPoint x="1280" y="1210" />
            </Array>
          </mxGeometry>
        </mxCell>
        <mxCell id="e0YomdGTlNmDe-Sjkuyy-299" style="edgeStyle=orthogonalEdgeStyle;rounded=0;jumpStyle=none;orthogonalLoop=1;jettySize=auto;html=1;exitX=0;exitY=0.5;exitDx=0;exitDy=0;entryX=0.5;entryY=0;entryDx=0;entryDy=0;" edge="1" parent="1" source="e0YomdGTlNmDe-Sjkuyy-280" target="e0YomdGTlNmDe-Sjkuyy-298">
          <mxGeometry relative="1" as="geometry" />
        </mxCell>
        <mxCell id="e0YomdGTlNmDe-Sjkuyy-280" value="Сообщение об ошибке с причиной" style="rounded=0;whiteSpace=wrap;html=1;" vertex="1" parent="1">
          <mxGeometry x="-780" y="1312.5" width="120" height="60" as="geometry" />
        </mxCell>
        <mxCell id="e0YomdGTlNmDe-Sjkuyy-302" style="edgeStyle=orthogonalEdgeStyle;rounded=0;jumpStyle=none;orthogonalLoop=1;jettySize=auto;html=1;exitX=0;exitY=0.5;exitDx=0;exitDy=0;entryX=1;entryY=0.5;entryDx=0;entryDy=0;fillColor=#f8cecc;strokeColor=#b85450;" edge="1" parent="1" source="e0YomdGTlNmDe-Sjkuyy-283" target="e0YomdGTlNmDe-Sjkuyy-280">
          <mxGeometry relative="1" as="geometry" />
        </mxCell>
        <mxCell id="e0YomdGTlNmDe-Sjkuyy-304" value="" style="edgeStyle=orthogonalEdgeStyle;rounded=0;jumpStyle=none;orthogonalLoop=1;jettySize=auto;html=1;fillColor=#d5e8d4;strokeColor=#82b366;" edge="1" parent="1" source="e0YomdGTlNmDe-Sjkuyy-283" target="e0YomdGTlNmDe-Sjkuyy-303">
          <mxGeometry relative="1" as="geometry" />
        </mxCell>
        <mxCell id="e0YomdGTlNmDe-Sjkuyy-283" value="Номера накладных проставлены?" style="rhombus;whiteSpace=wrap;html=1;" vertex="1" parent="1">
          <mxGeometry x="-610" y="1421.5" width="121" height="121" as="geometry" />
        </mxCell>
        <mxCell id="e0YomdGTlNmDe-Sjkuyy-284" value="Отдельная сущность" style="text;html=1;strokeColor=none;fillColor=none;align=center;verticalAlign=middle;whiteSpace=wrap;rounded=0;" vertex="1" parent="1">
          <mxGeometry x="-140" y="725" width="40" height="20" as="geometry" />
        </mxCell>
        <mxCell id="e0YomdGTlNmDe-Sjkuyy-287" style="edgeStyle=orthogonalEdgeStyle;rounded=0;jumpStyle=none;orthogonalLoop=1;jettySize=auto;html=1;exitX=0;exitY=0.5;exitDx=0;exitDy=0;entryX=1;entryY=0.5;entryDx=0;entryDy=0;" edge="1" parent="1" source="e0YomdGTlNmDe-Sjkuyy-285" target="e0YomdGTlNmDe-Sjkuyy-162">
          <mxGeometry relative="1" as="geometry" />
        </mxCell>
        <mxCell id="e0YomdGTlNmDe-Sjkuyy-288" value="string multy" style="edgeLabel;html=1;align=center;verticalAlign=middle;resizable=0;points=[];" vertex="1" connectable="0" parent="e0YomdGTlNmDe-Sjkuyy-287">
          <mxGeometry x="-0.8135" y="3" relative="1" as="geometry">
            <mxPoint x="-12" y="-3" as="offset" />
          </mxGeometry>
        </mxCell>
        <mxCell id="e0YomdGTlNmDe-Sjkuyy-285" value="Название пути к папке на сервере" style="rounded=0;whiteSpace=wrap;html=1;" vertex="1" parent="1">
          <mxGeometry y="180" width="80" height="50" as="geometry" />
        </mxCell>
        <mxCell id="e0YomdGTlNmDe-Sjkuyy-292" style="edgeStyle=orthogonalEdgeStyle;rounded=0;jumpStyle=none;orthogonalLoop=1;jettySize=auto;html=1;exitX=1;exitY=0.5;exitDx=0;exitDy=0;entryX=0.5;entryY=0;entryDx=0;entryDy=0;" edge="1" parent="1" source="e0YomdGTlNmDe-Sjkuyy-289" target="e0YomdGTlNmDe-Sjkuyy-48">
          <mxGeometry relative="1" as="geometry">
            <Array as="points">
              <mxPoint x="850" y="430" />
              <mxPoint x="850" y="140" />
              <mxPoint x="414" y="140" />
            </Array>
          </mxGeometry>
        </mxCell>
        <mxCell id="e0YomdGTlNmDe-Sjkuyy-289" value="Удаление объекта" style="shape=parallelogram;perimeter=parallelogramPerimeter;whiteSpace=wrap;html=1;fixedSize=1;" vertex="1" parent="1">
          <mxGeometry x="630" y="400" width="170" height="60" as="geometry" />
        </mxCell>
        <mxCell id="e0YomdGTlNmDe-Sjkuyy-296" style="edgeStyle=orthogonalEdgeStyle;rounded=0;jumpStyle=none;orthogonalLoop=1;jettySize=auto;html=1;exitX=0;exitY=0.5;exitDx=0;exitDy=0;entryX=1;entryY=0.5;entryDx=0;entryDy=0;" edge="1" parent="1" source="e0YomdGTlNmDe-Sjkuyy-294" target="e0YomdGTlNmDe-Sjkuyy-162">
          <mxGeometry relative="1" as="geometry" />
        </mxCell>
        <mxCell id="e0YomdGTlNmDe-Sjkuyy-297" value="bool hidden" style="edgeLabel;html=1;align=center;verticalAlign=middle;resizable=0;points=[];" vertex="1" connectable="0" parent="e0YomdGTlNmDe-Sjkuyy-296">
          <mxGeometry x="-0.787" y="3" relative="1" as="geometry">
            <mxPoint x="16" y="-3" as="offset" />
          </mxGeometry>
        </mxCell>
        <mxCell id="e0YomdGTlNmDe-Sjkuyy-294" value="Удалён" style="rounded=0;whiteSpace=wrap;html=1;" vertex="1" parent="1">
          <mxGeometry y="650" width="80" height="50" as="geometry" />
        </mxCell>
        <mxCell id="e0YomdGTlNmDe-Sjkuyy-298" value="Сдать принудительно?" style="rhombus;whiteSpace=wrap;html=1;" vertex="1" parent="1">
          <mxGeometry x="-930" y="1392.5" width="100" height="100" as="geometry" />
        </mxCell>
        <mxCell id="e0YomdGTlNmDe-Sjkuyy-305" style="edgeStyle=orthogonalEdgeStyle;rounded=0;jumpStyle=none;orthogonalLoop=1;jettySize=auto;html=1;exitX=0;exitY=0.5;exitDx=0;exitDy=0;entryX=1;entryY=0.5;entryDx=0;entryDy=0;fillColor=#f8cecc;strokeColor=#b85450;" edge="1" parent="1" source="e0YomdGTlNmDe-Sjkuyy-303" target="e0YomdGTlNmDe-Sjkuyy-280">
          <mxGeometry relative="1" as="geometry" />
        </mxCell>
        <mxCell id="e0YomdGTlNmDe-Sjkuyy-325" style="edgeStyle=orthogonalEdgeStyle;rounded=0;jumpStyle=none;orthogonalLoop=1;jettySize=auto;html=1;exitX=0.5;exitY=1;exitDx=0;exitDy=0;entryX=0.5;entryY=0;entryDx=0;entryDy=0;fillColor=#d5e8d4;strokeColor=#82b366;" edge="1" parent="1" source="e0YomdGTlNmDe-Sjkuyy-303" target="e0YomdGTlNmDe-Sjkuyy-324">
          <mxGeometry relative="1" as="geometry" />
        </mxCell>
        <mxCell id="e0YomdGTlNmDe-Sjkuyy-303" value="Диск записан?" style="rhombus;whiteSpace=wrap;html=1;" vertex="1" parent="1">
          <mxGeometry x="-610" y="1562.5" width="121" height="121" as="geometry" />
        </mxCell>
        <mxCell id="e0YomdGTlNmDe-Sjkuyy-308" style="edgeStyle=orthogonalEdgeStyle;rounded=0;jumpStyle=none;orthogonalLoop=1;jettySize=auto;html=1;exitX=0;exitY=0.5;exitDx=0;exitDy=0;entryX=1;entryY=0.5;entryDx=0;entryDy=0;" edge="1" parent="1" source="e0YomdGTlNmDe-Sjkuyy-314" target="e0YomdGTlNmDe-Sjkuyy-162">
          <mxGeometry relative="1" as="geometry">
            <mxPoint x="2" y="1030" as="sourcePoint" />
          </mxGeometry>
        </mxCell>
        <mxCell id="e0YomdGTlNmDe-Sjkuyy-309" value="unsigned int hidden" style="edgeLabel;html=1;align=center;verticalAlign=middle;resizable=0;points=[];" vertex="1" connectable="0" parent="e0YomdGTlNmDe-Sjkuyy-308">
          <mxGeometry x="-0.8649" y="1" relative="1" as="geometry">
            <mxPoint x="18.62" y="-1" as="offset" />
          </mxGeometry>
        </mxCell>
        <mxCell id="e0YomdGTlNmDe-Sjkuyy-310" value="Возможность проставлять значения прямо во время этой проверки" style="text;html=1;strokeColor=none;fillColor=none;align=center;verticalAlign=middle;whiteSpace=wrap;rounded=0;" vertex="1" parent="1">
          <mxGeometry x="-780" y="1462.5" width="120" height="60" as="geometry" />
        </mxCell>
        <mxCell id="e0YomdGTlNmDe-Sjkuyy-311" value="Диск уже был записан?" style="rhombus;whiteSpace=wrap;html=1;" vertex="1" parent="1">
          <mxGeometry x="1620" y="990" width="110" height="90" as="geometry" />
        </mxCell>
        <mxCell id="e0YomdGTlNmDe-Sjkuyy-314" value="Последнее состояние диска" style="rounded=0;whiteSpace=wrap;html=1;" vertex="1" parent="1">
          <mxGeometry y="1005" width="80" height="50" as="geometry" />
        </mxCell>
        <mxCell id="e0YomdGTlNmDe-Sjkuyy-316" value="Отдельная сущность" style="text;html=1;strokeColor=none;fillColor=none;align=center;verticalAlign=middle;whiteSpace=wrap;rounded=0;" vertex="1" parent="1">
          <mxGeometry x="-140" y="226" width="40" height="20" as="geometry" />
        </mxCell>
        <mxCell id="eaa6PEkjQR-Yh5cNjYBy-5" value="" style="edgeStyle=orthogonalEdgeStyle;rounded=0;jumpStyle=none;orthogonalLoop=1;jettySize=auto;html=1;" edge="1" parent="1" source="e0YomdGTlNmDe-Sjkuyy-317" target="eaa6PEkjQR-Yh5cNjYBy-4">
          <mxGeometry relative="1" as="geometry" />
        </mxCell>
        <mxCell id="e0YomdGTlNmDe-Sjkuyy-317" value="три состояния:&lt;br&gt;&lt;div style=&quot;text-align: left&quot;&gt;&lt;span&gt;1) не записан&lt;/span&gt;&lt;/div&gt;&lt;div style=&quot;text-align: left&quot;&gt;&lt;span&gt;2) записан&lt;/span&gt;&lt;/div&gt;&lt;div style=&quot;text-align: left&quot;&gt;&lt;span&gt;3) надо перезаписать&lt;/span&gt;&lt;/div&gt;" style="text;html=1;strokeColor=none;fillColor=none;align=center;verticalAlign=middle;whiteSpace=wrap;rounded=0;" vertex="1" parent="1">
          <mxGeometry x="-230" y="995" width="130" height="65" as="geometry" />
        </mxCell>
        <mxCell id="e0YomdGTlNmDe-Sjkuyy-320" style="edgeStyle=orthogonalEdgeStyle;rounded=0;jumpStyle=none;orthogonalLoop=1;jettySize=auto;html=1;exitX=0;exitY=0.5;exitDx=0;exitDy=0;entryX=1;entryY=0.5;entryDx=0;entryDy=0;" edge="1" parent="1" source="e0YomdGTlNmDe-Sjkuyy-318" target="e0YomdGTlNmDe-Sjkuyy-162">
          <mxGeometry relative="1" as="geometry" />
        </mxCell>
        <mxCell id="e0YomdGTlNmDe-Sjkuyy-321" value="bool hidden" style="edgeLabel;html=1;align=center;verticalAlign=middle;resizable=0;points=[];" vertex="1" connectable="0" parent="e0YomdGTlNmDe-Sjkuyy-320">
          <mxGeometry x="-0.8758" y="-2" relative="1" as="geometry">
            <mxPoint x="19.72" y="1.98" as="offset" />
          </mxGeometry>
        </mxCell>
        <mxCell id="e0YomdGTlNmDe-Sjkuyy-318" value="Оригиналы документов в наличии?" style="rounded=0;whiteSpace=wrap;html=1;" vertex="1" parent="1">
          <mxGeometry y="1070" width="80" height="50" as="geometry" />
        </mxCell>
        <mxCell id="e0YomdGTlNmDe-Sjkuyy-326" style="edgeStyle=orthogonalEdgeStyle;rounded=0;jumpStyle=none;orthogonalLoop=1;jettySize=auto;html=1;exitX=0;exitY=0.5;exitDx=0;exitDy=0;entryX=1;entryY=0.5;entryDx=0;entryDy=0;fillColor=#f8cecc;strokeColor=#b85450;" edge="1" parent="1" source="e0YomdGTlNmDe-Sjkuyy-324" target="e0YomdGTlNmDe-Sjkuyy-280">
          <mxGeometry relative="1" as="geometry" />
        </mxCell>
        <mxCell id="eaa6PEkjQR-Yh5cNjYBy-11" value="" style="edgeStyle=orthogonalEdgeStyle;rounded=0;jumpStyle=none;orthogonalLoop=1;jettySize=auto;html=1;fillColor=#d5e8d4;strokeColor=#82b366;" edge="1" parent="1" source="e0YomdGTlNmDe-Sjkuyy-324" target="eaa6PEkjQR-Yh5cNjYBy-10">
          <mxGeometry relative="1" as="geometry" />
        </mxCell>
        <mxCell id="e0YomdGTlNmDe-Sjkuyy-324" value="Оригиналы документов?" style="rhombus;whiteSpace=wrap;html=1;" vertex="1" parent="1">
          <mxGeometry x="-610" y="1702.5" width="121" height="121" as="geometry" />
        </mxCell>
        <mxCell id="e0YomdGTlNmDe-Sjkuyy-330" style="edgeStyle=orthogonalEdgeStyle;rounded=0;jumpStyle=none;orthogonalLoop=1;jettySize=auto;html=1;exitX=1;exitY=0.5;exitDx=0;exitDy=0;entryX=0;entryY=0.5;entryDx=0;entryDy=0;" edge="1" parent="1" source="e0YomdGTlNmDe-Sjkuyy-327" target="e0YomdGTlNmDe-Sjkuyy-329">
          <mxGeometry relative="1" as="geometry" />
        </mxCell>
        <mxCell id="e0YomdGTlNmDe-Sjkuyy-327" value="Появились правки" style="rhombus;whiteSpace=wrap;html=1;" vertex="1" parent="1">
          <mxGeometry x="550" y="530" width="80" height="80" as="geometry" />
        </mxCell>
        <mxCell id="e0YomdGTlNmDe-Sjkuyy-329" value="Изменить статус объекта на &quot;в работе&quot; со всеми вытекающими" style="rounded=0;whiteSpace=wrap;html=1;" vertex="1" parent="1">
          <mxGeometry x="655" y="540" width="120" height="60" as="geometry" />
        </mxCell>
        <mxCell id="e0YomdGTlNmDe-Sjkuyy-338" style="edgeStyle=orthogonalEdgeStyle;rounded=0;jumpStyle=none;orthogonalLoop=1;jettySize=auto;html=1;exitX=0;exitY=0.5;exitDx=0;exitDy=0;entryX=1;entryY=0.5;entryDx=0;entryDy=0;" edge="1" parent="1" source="e0YomdGTlNmDe-Sjkuyy-336" target="e0YomdGTlNmDe-Sjkuyy-162">
          <mxGeometry relative="1" as="geometry" />
        </mxCell>
        <mxCell id="e0YomdGTlNmDe-Sjkuyy-339" value="сущность" style="edgeLabel;html=1;align=center;verticalAlign=middle;resizable=0;points=[];" vertex="1" connectable="0" parent="e0YomdGTlNmDe-Sjkuyy-338">
          <mxGeometry x="-0.8913" relative="1" as="geometry">
            <mxPoint x="16" as="offset" />
          </mxGeometry>
        </mxCell>
        <mxCell id="e0YomdGTlNmDe-Sjkuyy-336" value="Куда отправляем?" style="rounded=0;whiteSpace=wrap;html=1;" vertex="1" parent="1">
          <mxGeometry y="1140" width="80" height="50" as="geometry" />
        </mxCell>
        <mxCell id="e0YomdGTlNmDe-Sjkuyy-344" style="edgeStyle=orthogonalEdgeStyle;rounded=0;jumpStyle=none;orthogonalLoop=1;jettySize=auto;html=1;exitX=0;exitY=0.5;exitDx=0;exitDy=0;entryX=1;entryY=0.5;entryDx=0;entryDy=0;" edge="1" parent="1" source="e0YomdGTlNmDe-Sjkuyy-342" target="e0YomdGTlNmDe-Sjkuyy-187">
          <mxGeometry relative="1" as="geometry">
            <Array as="points">
              <mxPoint x="360" y="945" />
              <mxPoint x="360" y="885" />
            </Array>
          </mxGeometry>
        </mxCell>
        <mxCell id="e0YomdGTlNmDe-Sjkuyy-345" value="unsigned int" style="edgeLabel;html=1;align=center;verticalAlign=middle;resizable=0;points=[];" vertex="1" connectable="0" parent="e0YomdGTlNmDe-Sjkuyy-344">
          <mxGeometry x="-0.1982" y="-1" relative="1" as="geometry">
            <mxPoint x="25.86" as="offset" />
          </mxGeometry>
        </mxCell>
        <mxCell id="e0YomdGTlNmDe-Sjkuyy-342" value="Индивидуальное кол-во экз" style="rounded=0;whiteSpace=wrap;html=1;" vertex="1" parent="1">
          <mxGeometry x="497" y="920" width="106" height="50" as="geometry" />
        </mxCell>
        <mxCell id="e0YomdGTlNmDe-Sjkuyy-350" style="edgeStyle=orthogonalEdgeStyle;rounded=0;jumpStyle=none;orthogonalLoop=1;jettySize=auto;html=1;exitX=0.5;exitY=0;exitDx=0;exitDy=0;entryX=0.5;entryY=1;entryDx=0;entryDy=0;" edge="1" parent="1" source="e0YomdGTlNmDe-Sjkuyy-347" target="e0YomdGTlNmDe-Sjkuyy-245">
          <mxGeometry relative="1" as="geometry" />
        </mxCell>
        <mxCell id="e0YomdGTlNmDe-Sjkuyy-352" style="edgeStyle=orthogonalEdgeStyle;rounded=0;jumpStyle=none;orthogonalLoop=1;jettySize=auto;html=1;exitX=0;exitY=0.5;exitDx=0;exitDy=0;entryX=1;entryY=0.5;entryDx=0;entryDy=0;fillColor=#f8cecc;strokeColor=#b85450;" edge="1" parent="1" source="e0YomdGTlNmDe-Sjkuyy-347" target="e0YomdGTlNmDe-Sjkuyy-280">
          <mxGeometry relative="1" as="geometry" />
        </mxCell>
        <mxCell id="e0YomdGTlNmDe-Sjkuyy-354" style="edgeStyle=orthogonalEdgeStyle;rounded=0;jumpStyle=none;orthogonalLoop=1;jettySize=auto;html=1;exitX=0.5;exitY=1;exitDx=0;exitDy=0;entryX=0.5;entryY=0;entryDx=0;entryDy=0;" edge="1" parent="1" source="e0YomdGTlNmDe-Sjkuyy-347" target="e0YomdGTlNmDe-Sjkuyy-353">
          <mxGeometry relative="1" as="geometry" />
        </mxCell>
        <mxCell id="e0YomdGTlNmDe-Sjkuyy-347" value="В настройках проекта проставлено куда сдавать?" style="rhombus;whiteSpace=wrap;html=1;" vertex="1" parent="1">
          <mxGeometry x="-614.5" y="1065" width="130" height="130" as="geometry" />
        </mxCell>
        <mxCell id="e0YomdGTlNmDe-Sjkuyy-355" style="edgeStyle=orthogonalEdgeStyle;rounded=0;jumpStyle=none;orthogonalLoop=1;jettySize=auto;html=1;exitX=0.5;exitY=1;exitDx=0;exitDy=0;entryX=0.5;entryY=0;entryDx=0;entryDy=0;" edge="1" parent="1" source="e0YomdGTlNmDe-Sjkuyy-353" target="e0YomdGTlNmDe-Sjkuyy-246">
          <mxGeometry relative="1" as="geometry" />
        </mxCell>
        <mxCell id="e0YomdGTlNmDe-Sjkuyy-353" value="Выбираем куда отправляем" style="rounded=0;whiteSpace=wrap;html=1;" vertex="1" parent="1">
          <mxGeometry x="-610" y="1210" width="120" height="60" as="geometry" />
        </mxCell>
        <mxCell id="eaa6PEkjQR-Yh5cNjYBy-2" value="" style="edgeStyle=orthogonalEdgeStyle;rounded=0;jumpStyle=none;orthogonalLoop=1;jettySize=auto;html=1;" edge="1" parent="1" source="e0YomdGTlNmDe-Sjkuyy-356" target="eaa6PEkjQR-Yh5cNjYBy-1">
          <mxGeometry relative="1" as="geometry" />
        </mxCell>
        <mxCell id="e0YomdGTlNmDe-Sjkuyy-356" value="Подтягиваем варианты куда отправлять из другой таблицы.&lt;br&gt;Т.е. это выпадающий список" style="text;html=1;strokeColor=none;fillColor=none;align=center;verticalAlign=middle;whiteSpace=wrap;rounded=0;" vertex="1" parent="1">
          <mxGeometry x="-220" y="1130" width="138" height="70" as="geometry" />
        </mxCell>
        <mxCell id="eaa6PEkjQR-Yh5cNjYBy-1" value="см. лист &quot;Куда отправляем&quot;" style="text;html=1;strokeColor=none;fillColor=none;align=center;verticalAlign=middle;whiteSpace=wrap;rounded=0;" vertex="1" parent="1">
          <mxGeometry x="-350" y="1145" width="112" height="40" as="geometry" />
        </mxCell>
        <mxCell id="eaa6PEkjQR-Yh5cNjYBy-4" value="Скорее всего отдельная сущность" style="text;html=1;strokeColor=none;fillColor=none;align=center;verticalAlign=middle;whiteSpace=wrap;rounded=0;" vertex="1" parent="1">
          <mxGeometry x="-380" y="1017.5" width="126" height="20" as="geometry" />
        </mxCell>
        <mxCell id="eaa6PEkjQR-Yh5cNjYBy-9" value="" style="edgeStyle=orthogonalEdgeStyle;rounded=0;jumpStyle=none;orthogonalLoop=1;jettySize=auto;html=1;" edge="1" parent="1" source="eaa6PEkjQR-Yh5cNjYBy-7" target="eaa6PEkjQR-Yh5cNjYBy-8">
          <mxGeometry relative="1" as="geometry" />
        </mxCell>
        <mxCell id="eaa6PEkjQR-Yh5cNjYBy-7" value="Состояния:&lt;br&gt;1) в работе&lt;br&gt;2) сдан&lt;br&gt;3) на паузе" style="text;html=1;strokeColor=none;fillColor=none;align=center;verticalAlign=middle;whiteSpace=wrap;rounded=0;" vertex="1" parent="1">
          <mxGeometry x="-190" y="520" width="98" height="50" as="geometry" />
        </mxCell>
        <mxCell id="eaa6PEkjQR-Yh5cNjYBy-8" value="Возможно отдельная сущность" style="text;html=1;strokeColor=none;fillColor=none;align=center;verticalAlign=middle;whiteSpace=wrap;rounded=0;" vertex="1" parent="1">
          <mxGeometry x="-300" y="520" width="80" height="50" as="geometry" />
        </mxCell>
        <mxCell id="eaa6PEkjQR-Yh5cNjYBy-10" value="Коробка уехала?" style="rhombus;whiteSpace=wrap;html=1;" vertex="1" parent="1">
          <mxGeometry x="-610" y="1860" width="121" height="121" as="geometry" />
        </mxCell>
        <mxCell id="eaa6PEkjQR-Yh5cNjYBy-12" value="Скорее всего отдельная сущность, каждый маршрут отдельный для каждого заказчика" style="text;html=1;strokeColor=none;fillColor=none;align=center;verticalAlign=middle;whiteSpace=wrap;rounded=0;" vertex="1" parent="1">
          <mxGeometry x="-649.5" y="925" width="200" height="55" as="geometry" />
        </mxCell>
      </root>
    </mxGraphModel>
  </diagram>
  <diagram id="boAMVeQwxJgEEz6LrpAe" name="Куда отправляем? (заказчик)">
    <mxGraphModel dx="1369" dy="860" grid="1" gridSize="10" guides="1" tooltips="1" connect="1" arrows="1" fold="1" page="1" pageScale="1" pageWidth="827" pageHeight="1169" math="0" shadow="0">
      <root>
        <mxCell id="K4cFTER7uekkl6LlYGIG-0" />
        <mxCell id="K4cFTER7uekkl6LlYGIG-1" parent="K4cFTER7uekkl6LlYGIG-0" />
        <mxCell id="b5A_w0G50J8YNFB0P62r-0" value="&lt;h1&gt;Заказчик&lt;/h1&gt;&lt;div&gt;Отдельная сущность, хранящая в себе информацию о заказчике, контактном лице, адресе, телефон и т.п.&lt;/div&gt;" style="text;html=1;strokeColor=none;fillColor=none;spacing=5;spacingTop=-20;whiteSpace=wrap;overflow=hidden;rounded=0;" vertex="1" parent="K4cFTER7uekkl6LlYGIG-1">
          <mxGeometry x="320" y="380" width="190" height="120" as="geometry" />
        </mxCell>
      </root>
    </mxGraphModel>
  </diagram>
</mxfile>
